<svg width="80" height="80" viewBox="0 0 80 80" fill="none" xmlns="http://www.w3.org/2000/svg">
<path d="M57.5 16.25V18.9313C56.0563 19.3888 55 20.725 55 22.3175C55 23.6762 55.755 24.9 56.9725 25.5087L59.41 26.7263C59.7737 26.9088 60 27.275 60 27.6825C60 28.2712 59.5212 28.75 58.9325 28.75H58.5675C57.9788 28.75 57.5 28.2712 57.5 27.6825V27.5H55V27.6825C55 29.275 56.0563 30.6112 57.5 31.0687V33.75H60V31.0687C61.4437 30.6112 62.5 29.275 62.5 27.6825C62.5 26.3237 61.745 25.1 60.5275 24.4913L58.09 23.2737C57.7263 23.0912 57.5 22.725 57.5 22.3175C57.5 21.7288 57.9788 21.25 58.5675 21.25H58.9325C59.5212 21.25 60 21.7288 60 22.3175V22.5H62.5V22.3175C62.5 20.725 61.4437 19.3888 60 18.9313V16.25H57.5Z" fill="#FFB320"/>
<path d="M72.4313 26.37C72.475 25.9188 72.5 25.4625 72.5 25C72.5 17.84 66.9975 11.9475 60 11.3137V1.25H6.25C2.80375 1.25 0 4.05375 0 7.5V47.5C0 50.9463 2.80375 53.75 6.25 53.75H12.5V43.75H19.46L19.5662 43.9563C19.1125 44.8438 18.7275 45.7775 18.4175 46.7425L15 47.8387V57.1625L18.4175 58.2575C18.7288 59.2237 19.1125 60.1575 19.5662 61.0437L17.9263 64.2287L24.5187 70.8213L27.705 69.1813C28.5925 69.635 29.5262 70.02 30.4912 70.33L31.5887 73.75H40.1275C40.7088 76.5987 43.2325 78.75 46.2513 78.75H71.2513C74.6975 78.75 77.5013 75.9463 77.5013 72.5V32.5C77.5 29.4587 75.3138 26.9237 72.4313 26.37ZM70 25C70 31.2025 64.9525 36.25 58.75 36.25C52.5475 36.25 47.5 31.2025 47.5 25C47.5 18.7975 52.5475 13.75 58.75 13.75C64.9525 13.75 70 18.7975 70 25ZM70 33.75V41.25H47.5V33.75H48.1512C50.675 36.8013 54.4888 38.75 58.75 38.75C63.0112 38.75 66.8238 36.8013 69.3487 33.75H70ZM10 51.25H6.25C4.1825 51.25 2.5 49.5675 2.5 47.5V12.4975C3.545 13.2825 4.84375 13.75 6.25 13.75H10V51.25ZM32.4688 68.305L31.8225 68.1225C30.59 67.7738 29.4138 67.2887 28.3275 66.6813L27.7425 66.3538L24.9988 67.765L20.985 63.7513L22.3975 61.0075L22.0688 60.4213C21.4613 59.3375 20.9763 58.1613 20.6275 56.9275L20.445 56.2812L17.5 55.3387V49.6625L20.445 48.7188L20.6275 48.0725C20.9763 46.84 21.4613 45.6637 22.0688 44.5775L22.3962 43.9925L22.2725 43.75H25.6375C23.6187 46.1838 22.5 49.2412 22.5 52.5C22.5 60.0812 28.6688 66.25 36.25 66.25C37.5337 66.25 38.7863 66.0612 40 65.7163V71.25H33.4113L32.4688 68.305ZM40 63.0975C38.8 63.5225 37.5438 63.75 36.25 63.75C30.0475 63.75 25 58.7025 25 52.5C25 49.0588 26.535 45.8975 29.2038 43.75H40V63.0975ZM40 32.5V41.25H12.5V11.25H6.25C4.1825 11.25 2.5 9.5675 2.5 7.5C2.5 5.4325 4.1825 3.75 6.25 3.75H57.5V11.3137C50.5025 11.9475 45 17.84 45 25C45 25.4625 45.025 25.9188 45.0687 26.37C42.1862 26.9237 40 29.4587 40 32.5ZM75 72.5C75 74.5675 73.3175 76.25 71.25 76.25H46.25C44.1825 76.25 42.5 74.5675 42.5 72.5V32.5C42.5 30.6712 43.8175 29.15 45.5513 28.8212C45.7963 29.6675 46.1225 30.4788 46.5175 31.25H45V43.75H72.5V31.25H70.9825C71.3787 30.4788 71.7038 29.6675 71.9487 28.8212C73.6825 29.15 75 30.6712 75 32.5V72.5Z" fill="#FFB320"/>
<path d="M65 73.75H72.5V56.25H65V73.75ZM67.5 58.75H70V71.25H67.5V58.75Z" fill="#FFB320"/>
<path d="M55 73.75H62.5V66.25H55V73.75ZM57.5 68.75H60V71.25H57.5V68.75Z" fill="#FFB320"/>
<path d="M45 73.75H52.5V66.25H45V73.75ZM47.5 68.75H50V71.25H47.5V68.75Z" fill="#FFB320"/>
<path d="M55 63.75H62.5V56.25H55V63.75ZM57.5 58.75H60V61.25H57.5V58.75Z" fill="#FFB320"/>
<path d="M45 63.75H52.5V56.25H45V63.75ZM47.5 58.75H50V61.25H47.5V58.75Z" fill="#FFB320"/>
<path d="M55 53.75H62.5V46.25H55V53.75ZM57.5 48.75H60V51.25H57.5V48.75Z" fill="#FFB320"/>
<path d="M65 53.75H72.5V46.25H65V53.75ZM67.5 48.75H70V51.25H67.5V48.75Z" fill="#FFB320"/>
<path d="M45 53.75H52.5V46.25H45V53.75ZM47.5 48.75H50V51.25H47.5V48.75Z" fill="#FFB320"/>
<path d="M15 18.75H40V6.25H15V18.75ZM17.5 8.75H37.5V16.25H17.5V8.75Z" fill="#FFB320"/>
<path d="M15 21.25H37.5V23.75H15V21.25Z" fill="#FFB320"/>
<path d="M30 26.25H32.5V28.75H30V26.25Z" fill="#FFB320"/>
<path d="M35 26.25H37.5V28.75H35V26.25Z" fill="#FFB320"/>
<path d="M15 26.25H27.5V28.75H15V26.25Z" fill="#FFB320"/>
<path d="M15 31.25H37.5V33.75H15V31.25Z" fill="#FFB320"/>
<path d="M15 36.25H37.5V38.75H15V36.25Z" fill="#FFB320"/>
</svg>
