<svg width="1000" height="312" viewBox="0 0 1000 312" fill="none" xmlns="http://www.w3.org/2000/svg">
<path opacity="0.33" d="M473 209.976C269.1 485.472 209.9 103.896 152.7 209.976C66 371.592 0 186.264 0 186.264V0H1000V186.264C1000 186.264 937.9 267.696 905.1 277.68C872.3 287.976 842.3 239.304 829.3 208.728C806 154.752 745.3 27.144 694.9 14.664C644.5 2.184 492.4 184.08 473 209.976Z" fill="white"/>
<path opacity="0.66" d="M734 209.976C688.5 209.976 656.8 137.592 604.9 87.984C576.3 60.84 454.6 56.472 350.9 209.976C247.2 363.48 259.2 102.648 201.7 209.976C115.7 369.096 0 124.176 0 124.176V0H1000V113.88C1000 113.88 971.8 56.16 907.9 56.16C810.2 56.472 775.7 209.976 734 209.976Z" fill="white"/>
<path d="M766.1 90.168C566.1 -89.232 500.1 294.528 371 151.008C242 5.61601 242 16.848 184.8 64.272C128 111.696 132.3 140.088 89.9 163.8C28.6 198.744 0 0 0 0H1000C1000 0 990.1 127.608 916.4 150.072C842.7 172.536 829.6 146.64 766.1 90.168Z" fill="white"/>
</svg>
