<svg width="61" height="57" viewBox="0 0 61 57" fill="none" xmlns="http://www.w3.org/2000/svg">
<path fill-rule="evenodd" clip-rule="evenodd" d="M58.1159 40.9081H58.0744V50.8847C58.0744 54.0114 55.5938 56.5516 52.5435 56.5516H5.5309C2.48061 56.5516 0 54.0114 0 50.8847V7.85152V5.66692V5.00389H0.064988C0.389928 2.1931 2.70322 0 5.5309 0H44.16C47.2103 0 49.6909 2.54161 49.6909 5.66692V9.79952H52.5435C55.5938 9.79952 58.0744 12.3411 58.0744 15.4664V25.3241H58.1159C59.641 25.3241 60.8813 26.5963 60.8813 28.1575V38.0746C60.8813 39.6373 59.641 40.9081 58.1159 40.9081ZM46.9255 5.66692C46.9255 4.10568 45.6852 2.83346 44.16 2.83346H5.5309C4.00575 2.83346 2.76545 4.10568 2.76545 5.66692V7.85152C2.76545 9.41417 4.00575 9.79952 5.5309 9.79952H46.9255V5.66692ZM55.309 15.4664C55.309 13.9052 54.0673 12.633 52.5435 12.633H48.3082H46.9255H5.5309C4.51874 12.633 3.58264 12.3341 2.76545 11.8453V50.8847C2.76545 52.4474 4.00575 53.7182 5.5309 53.7182H52.5435C54.0673 53.7182 55.309 52.4474 55.309 50.8847V40.9081H42.8769C41.3517 40.9081 40.1114 39.6373 40.1114 38.0746V28.1575C40.1114 26.5963 41.3517 25.3241 42.8769 25.3241H55.309V15.4664ZM58.1159 28.1575H56.6917H55.309H42.8769V38.0746H55.309H56.6917H58.1173L58.1159 28.1575ZM47.6791 36.0586C46.2369 36.0586 45.0685 34.8601 45.0685 33.3824C45.0685 31.9048 46.2369 30.7062 47.6791 30.7062C49.1213 30.7062 50.291 31.9048 50.291 33.3824C50.291 34.8601 49.1213 36.0586 47.6791 36.0586Z" fill="#FFB320"/>
</svg>
