<svg width="80" height="80" viewBox="0 0 80 80" fill="none" xmlns="http://www.w3.org/2000/svg">
<path d="M40.4333 28.3604H10.4358C9.78858 28.3604 9.26405 28.885 9.26405 29.5321C9.26405 30.1793 9.78858 30.7038 10.4358 30.7038H40.4334C41.0806 30.7038 41.6051 30.1791 41.6051 29.5321C41.6051 28.885 41.0806 28.3604 40.4333 28.3604Z" fill="#FFB320"/>
<path d="M40.4333 36.594H10.4358C9.78858 36.594 9.26405 37.1187 9.26405 37.7657C9.26405 38.4127 9.78858 38.9374 10.4358 38.9374H40.4334C41.0806 38.9374 41.6051 38.4127 41.6051 37.7657C41.6051 37.1187 41.0806 36.594 40.4333 36.594Z" fill="#FFB320"/>
<path d="M40.4333 44.8276H10.4358C9.78858 44.8276 9.26405 45.3523 9.26405 45.9994C9.26405 46.6464 9.78858 47.1711 10.4358 47.1711H40.4334C41.0806 47.1711 41.6051 46.6464 41.6051 45.9994C41.6051 45.3523 41.0806 44.8276 40.4333 44.8276Z" fill="#FFB320"/>
<path d="M41.6051 54.2332C41.6051 53.5861 41.0806 53.0615 40.4334 53.0615H10.4358C9.78858 53.0615 9.26405 53.5862 9.26405 54.2332C9.26405 54.8803 9.78858 55.405 10.4358 55.405H40.4334C41.0806 55.405 41.6051 54.8804 41.6051 54.2332Z" fill="#FFB320"/>
<path d="M10.4358 65.1283C9.78858 65.1283 9.26405 65.653 9.26405 66.3C9.26405 66.947 9.78858 67.4717 10.4358 67.4717H25.473C26.1202 67.4717 26.6447 66.947 26.6447 66.3C26.6447 65.653 26.1202 65.1283 25.473 65.1283H10.4358Z" fill="#FFB320"/>
<path d="M53.9365 14.5083V10.7061C53.9365 9.25766 52.7583 8.07922 51.3097 8.07922H27.2523C25.8039 8.07922 24.6256 9.25766 24.6256 10.7061V14.5083C24.6256 15.9567 25.8039 17.135 27.2523 17.135H29.2839C29.9311 17.135 30.4556 16.6103 30.4556 15.9633C30.4556 15.3161 29.9311 14.7916 29.2839 14.7916H27.2523C27.0962 14.7916 26.9692 14.6645 26.9692 14.5084V10.7061C26.9692 10.55 27.0962 10.4228 27.2523 10.4228H51.3097C51.4659 10.4228 51.593 10.5498 51.593 10.7061V14.5083C51.593 14.6644 51.4659 14.7914 51.3097 14.7914H34.762C34.1148 14.7914 33.5903 15.3161 33.5903 15.9631C33.5903 16.6103 34.1148 17.1348 34.762 17.1348H51.3098C52.7583 17.1352 53.9365 15.9567 53.9365 14.5083Z" fill="#FFB320"/>
<path d="M62.6981 71.4525C62.0509 71.4525 61.5264 71.9772 61.5264 72.6242V74.2022C61.5264 76.1067 59.9769 77.6564 58.072 77.6564H6.23421C4.32968 77.6564 2.77999 76.1069 2.77999 74.2022V17.8794C2.77999 17.6258 2.80968 17.377 2.86265 17.135H13.5319C15.7594 17.135 17.5716 15.3228 17.5716 13.0953V2.42625C17.8136 2.37328 18.0622 2.34359 18.3158 2.34359H58.0719C59.9766 2.34359 61.5262 3.89312 61.5262 5.79781V21.3981C61.5262 22.0453 62.0508 22.5698 62.698 22.5698C63.3451 22.5698 63.8697 22.0452 63.8697 21.3981V5.79766C63.8698 2.60094 61.2689 0 58.072 0H18.3159C16.7673 0 15.3112 0.603125 14.2162 1.69813L2.13452 13.7798C1.03952 14.8748 0.436554 16.3308 0.436554 17.8795V74.2023C0.436554 77.3992 3.03734 80 6.23421 80H58.072C61.2689 80 63.8698 77.3991 63.8698 74.2023V72.6244C63.8698 71.9772 63.3453 71.4525 62.6981 71.4525ZM15.2281 4.00063V13.0953C15.2281 14.0306 14.4672 14.7916 13.5319 14.7916H4.43718L15.2281 4.00063Z" fill="#FFB320"/>
<path d="M78.7472 41.8748C79.5697 40.6675 79.7825 39.1783 79.3311 37.7889C78.8797 36.3995 77.832 35.3198 76.457 34.8267C75.5448 34.4995 74.9362 33.662 74.9072 32.6933C74.863 31.2331 74.1597 29.9031 72.9777 29.0444C71.7959 28.1858 70.3134 27.9281 68.9116 28.3372C67.9806 28.6088 66.9967 28.2888 66.4036 27.5223C65.5097 26.3669 64.1591 25.7042 62.6981 25.7042C61.2373 25.7042 59.8866 26.3669 58.9925 27.5223C58.3994 28.2889 57.4148 28.6084 56.4847 28.3372C55.0826 27.9278 53.6003 28.1858 52.4183 29.0444C51.2364 29.9031 50.5334 31.233 50.4891 32.6931C50.4598 33.6619 49.8514 34.4992 48.939 34.8266C47.564 35.3197 46.5164 36.3995 46.0651 37.7888C45.6137 39.1781 45.8265 40.6675 46.649 41.8747C47.1947 42.6758 47.1947 43.7108 46.649 44.5117C45.8265 45.7191 45.6137 47.2083 46.0651 48.5977C46.5164 49.987 47.564 51.0667 48.939 51.56C49.8514 51.8874 50.46 52.7247 50.4891 53.6934C50.5298 55.0366 51.1453 56.2986 52.1781 57.1556C52.8595 57.7213 53.6781 58.0752 54.5348 58.1934V68.8619C54.5348 69.762 55.0231 70.5941 55.8089 71.033C56.5937 71.4716 57.5586 71.452 58.3256 70.9797L62.6233 68.3341C62.6933 68.2908 62.735 68.3103 62.7736 68.3341L67.0709 70.9797C67.8377 71.4516 68.8022 71.4719 69.5878 71.0328C70.3737 70.5938 70.8619 69.7617 70.8619 68.8617V58.1931C71.7183 58.075 72.5369 57.7211 73.2183 57.1556C74.2512 56.2986 74.8669 55.0367 74.9077 53.6933C74.9367 52.7245 75.5453 51.887 76.4575 51.5598C77.8327 51.0667 78.8803 49.9869 79.3316 48.5975C79.783 47.2081 79.5702 45.7189 78.7477 44.5116C78.2014 43.7109 78.2014 42.6759 78.7472 41.8748ZM68.2992 68.9841L64.0017 66.3384C63.2028 65.8467 62.1941 65.8459 61.3944 66.3384L57.0969 68.9839C56.9991 69.0434 56.8783 68.9748 56.8783 68.8617V57.9709C57.6839 57.8777 58.4826 58.2055 58.9925 58.8644C59.8867 60.0197 61.2373 60.6824 62.6983 60.6824C64.1591 60.6824 65.5097 60.0197 66.4036 58.8644C66.9136 58.2053 67.7125 57.8777 68.518 57.9709V68.8617C68.518 68.9756 68.3956 69.0436 68.2992 68.9841ZM76.8105 45.8316C77.2217 46.435 77.328 47.1792 77.1023 47.8736C76.8767 48.568 76.3531 49.1077 75.6658 49.3542C73.8405 50.0089 72.6233 51.6844 72.5647 53.6227C72.5439 54.3041 72.2444 54.9183 71.7214 55.3523C71.1334 55.8403 70.3372 56.0244 69.5681 55.8C67.7067 55.2569 65.7369 55.8969 64.55 57.4303C64.1033 58.0077 63.4281 58.3389 62.698 58.3389C61.968 58.3389 61.2928 58.0078 60.8458 57.4303C59.9397 56.2591 58.577 55.6091 57.1547 55.6091C56.7144 55.6091 56.2681 55.6714 55.8281 55.7998C55.0515 56.0261 54.2576 55.8364 53.6744 55.3522C53.1514 54.9181 52.8519 54.3039 52.8314 53.6227C52.7726 51.6844 51.5555 50.0089 49.73 49.3541C49.0428 49.1075 48.5194 48.568 48.2936 47.8736C48.068 47.1792 48.1742 46.4349 48.5855 45.8314C49.6772 44.2288 49.6772 42.158 48.5855 40.5553C48.1742 39.9519 48.068 39.2075 48.2936 38.513C48.5192 37.8186 49.0428 37.2789 49.73 37.0325C51.5555 36.3777 52.7726 34.7022 52.8314 32.7639C52.8534 32.0341 53.2047 31.3694 53.7955 30.9403C54.3859 30.5111 55.1266 30.3823 55.828 30.5867C57.6889 31.13 59.6592 30.4898 60.8458 28.9564C61.2926 28.3789 61.9676 28.0477 62.698 28.0477C63.4281 28.0477 64.1031 28.3788 64.55 28.9563C65.7367 30.4898 67.7061 31.1298 69.568 30.5867C70.2689 30.382 71.0095 30.5109 71.6003 30.9402C72.1911 31.3692 72.5427 32.0341 72.5645 32.7638C72.6233 34.702 73.8405 36.3777 75.6658 37.0323C76.3531 37.2788 76.8766 37.8184 77.1023 38.5128C77.328 39.2072 77.2217 39.9517 76.8105 40.555C75.7184 42.1578 75.7184 44.2289 76.8105 45.8316Z" fill="#FFB320"/>
<path d="M62.6981 33.3723C57.2828 33.3723 52.8772 37.7779 52.8772 43.1932C52.8772 48.6086 57.2828 53.0142 62.6981 53.0142C68.1133 53.0142 72.5189 48.6086 72.5189 43.1932C72.5189 37.7779 68.1133 33.3723 62.6981 33.3723ZM62.6981 50.6707C58.575 50.6707 55.2206 47.3164 55.2206 43.1934C55.2206 39.0704 58.575 35.7159 62.6981 35.7159C66.8212 35.7159 70.1755 39.0703 70.1755 43.1934C70.1755 47.3165 66.8211 50.6707 62.6981 50.6707Z" fill="#FFB320"/>
</svg>
