<svg width="80" height="80" viewBox="0 0 80 80" fill="none" xmlns="http://www.w3.org/2000/svg">
<path d="M76.4173 66.9853C76.9946 66.1333 77.3333 65.1053 77.3333 64C77.3333 61.0586 74.9413 58.6666 72 58.6666C69.0586 58.6666 66.6666 61.0586 66.6666 64C66.6666 65.1053 67.0053 66.1333 67.5826 66.9853C66.0546 67.5213 64.8533 68.7213 64.3186 70.2493C63.9413 69.9933 63.5213 69.8053 63.0826 69.652C63.6613 68.8 64 67.772 64 66.6666C64 63.7253 61.608 61.3333 58.6666 61.3333C55.7253 61.3333 53.3333 63.7253 53.3333 66.6666C53.3333 67.772 53.672 68.8 54.2493 69.652C53.812 69.8053 53.3906 69.9933 53.0133 70.2493C52.4773 68.7213 51.2773 67.52 49.7493 66.9853C50.328 66.1333 50.6666 65.1053 50.6666 64C50.6666 61.0586 48.2746 58.6666 45.3333 58.6666C42.392 58.6666 40 61.0586 40 64C40 65.1053 40.3386 66.1333 40.916 66.9853C38.8373 67.7146 37.3333 69.6746 37.3333 72V76C37.3333 76.7373 37.9293 77.3333 38.6666 77.3333H50.6666V78.6666C50.6666 79.404 51.2626 80 52 80H65.3333C66.0706 80 66.6666 79.404 66.6666 78.6666V77.3333H78.6666C79.404 77.3333 80 76.7373 80 76V72C80 69.6746 78.496 67.7146 76.4173 66.9853ZM45.3333 61.3333C46.804 61.3333 48 62.5293 48 64C48 65.4706 46.804 66.6666 45.3333 66.6666C43.8626 66.6666 42.6666 65.4706 42.6666 64C42.6666 62.5293 43.8626 61.3333 45.3333 61.3333ZM50.6666 74.6666H40V72C40 70.5293 41.196 69.3333 42.6666 69.3333H48C49.4706 69.3333 50.6666 70.5293 50.6666 72V74.6666ZM58.6666 64C60.1373 64 61.3333 65.196 61.3333 66.6666C61.3333 68.1373 60.1373 69.3333 58.6666 69.3333C57.196 69.3333 56 68.1373 56 66.6666C56 65.196 57.196 64 58.6666 64ZM64 76V77.3333H53.3333V76V74.6666C53.3333 73.196 54.5293 72 56 72H61.3333C62.804 72 64 73.196 64 74.6666V76ZM72 61.3333C73.4706 61.3333 74.6666 62.5293 74.6666 64C74.6666 65.4706 73.4706 66.6666 72 66.6666C70.5293 66.6666 69.3333 65.4706 69.3333 64C69.3333 62.5293 70.5293 61.3333 72 61.3333ZM77.3333 74.6666H66.6666V72C66.6666 70.5293 67.8626 69.3333 69.3333 69.3333H74.6666C76.1373 69.3333 77.3333 70.5293 77.3333 72V74.6666Z" fill="#FFB320"/>
<path d="M40.9427 43.0573L34.276 36.3907C34.0267 36.14 33.688 36 33.3333 36H26.6667V29.3333C26.6667 28.596 26.0707 28 25.3333 28H1.33333C0.596 28 0 28.596 0 29.3333V46.6667V56C0 56.7373 0.596 57.3333 1.33333 57.3333H5.52267C6.11867 59.628 8.188 61.3333 10.6667 61.3333C13.1453 61.3333 15.2147 59.628 15.8107 57.3333H26.856C27.452 59.628 29.5213 61.3333 32 61.3333C34.4787 61.3333 36.548 59.628 37.144 57.3333H40C40.7373 57.3333 41.3333 56.7373 41.3333 56V44C41.3333 43.6453 41.1933 43.3067 40.9427 43.0573ZM2.66667 30.6667H24V37.3333V45.3333H2.66667V30.6667ZM10.6667 58.6667C9.196 58.6667 8 57.4707 8 56C8 54.5293 9.196 53.3333 10.6667 53.3333C12.1373 53.3333 13.3333 54.5293 13.3333 56C13.3333 57.4707 12.1373 58.6667 10.6667 58.6667ZM32 58.6667C30.5293 58.6667 29.3333 57.4707 29.3333 56C29.3333 54.5293 30.5293 53.3333 32 53.3333C33.4707 53.3333 34.6667 54.5293 34.6667 56C34.6667 57.4707 33.4707 58.6667 32 58.6667ZM38.6667 54.6667H37.164C37.1173 54.4853 37.0453 54.3147 36.98 54.14C36.948 54.0547 36.9267 53.9667 36.8907 53.8827C36.7627 53.5893 36.612 53.308 36.436 53.0453C36.3973 52.9867 36.348 52.936 36.3053 52.8787C36.16 52.6773 36.0053 52.4853 35.8333 52.3067C35.7547 52.2253 35.6693 52.1547 35.5867 52.0787C35.4333 51.9387 35.2773 51.8053 35.108 51.684C35.0093 51.612 34.908 51.5467 34.804 51.4827C34.632 51.376 34.4547 51.28 34.2693 51.192C34.16 51.14 34.052 51.088 33.9373 51.0427C33.7333 50.9627 33.5213 50.9013 33.3067 50.8467C33.2027 50.82 33.104 50.7867 32.9987 50.7667C32.6747 50.7053 32.3427 50.6667 32 50.6667C31.6573 50.6667 31.3253 50.7053 31 50.768C30.8947 50.788 30.7947 50.8227 30.692 50.848C30.476 50.9027 30.2653 50.964 30.0613 51.044C29.948 51.0893 29.84 51.1413 29.7293 51.1933C29.5453 51.2813 29.3667 51.376 29.1947 51.484C29.0907 51.5493 28.9893 51.6133 28.8907 51.6853C28.7227 51.8067 28.5653 51.94 28.412 52.08C28.3293 52.156 28.244 52.2267 28.1653 52.308C27.9933 52.4867 27.8387 52.6787 27.6933 52.88C27.652 52.9373 27.6027 52.988 27.5627 53.0467C27.3867 53.3107 27.2347 53.5907 27.108 53.884C27.072 53.9667 27.0507 54.056 27.0187 54.1413C26.9533 54.3147 26.8813 54.4853 26.8347 54.668H15.8293C15.7827 54.4867 15.7107 54.316 15.6453 54.1413C15.6133 54.056 15.592 53.968 15.556 53.884C15.428 53.5907 15.2773 53.3093 15.1013 53.0467C15.0627 52.988 15.0133 52.9373 14.9707 52.88C14.8253 52.6787 14.6707 52.4867 14.4987 52.308C14.42 52.2267 14.3347 52.156 14.252 52.08C14.0987 51.94 13.9427 51.8067 13.7733 51.6853C13.6747 51.6133 13.5733 51.548 13.4693 51.484C13.2973 51.3773 13.12 51.2813 12.9347 51.1933C12.8253 51.1413 12.7173 51.0893 12.6027 51.044C12.3987 50.964 12.1867 50.9027 11.972 50.848C11.868 50.8213 11.7693 50.788 11.664 50.768C11.3413 50.7053 11.0093 50.6667 10.6667 50.6667C10.324 50.6667 9.992 50.7053 9.66667 50.768C9.56133 50.788 9.46133 50.8227 9.35867 50.848C9.14267 50.9027 8.932 50.964 8.728 51.044C8.61467 51.0893 8.50667 51.1413 8.396 51.1933C8.212 51.2813 8.03333 51.376 7.86133 51.484C7.75733 51.5493 7.656 51.6133 7.55733 51.6853C7.38933 51.8067 7.232 51.94 7.07867 52.08C6.996 52.156 6.91067 52.2267 6.832 52.308C6.66 52.4867 6.50533 52.6787 6.36 52.88C6.31867 52.9373 6.26933 52.988 6.22933 53.0467C6.05333 53.3107 5.90133 53.5907 5.77467 53.884C5.73867 53.9667 5.71733 54.056 5.68533 54.1413C5.62133 54.3147 5.54933 54.4853 5.50267 54.6667H2.66667V48H25.3333C26.0707 48 26.6667 47.404 26.6667 46.6667V38.6667H32.7813L38.6667 44.552V54.6667Z" fill="#FFB320"/>
<path d="M78.6666 0H70.6666C69.9293 0 69.3333 0.596 69.3333 1.33333V16.5947L61.3333 21.5947V17.3333C61.3333 16.8493 61.0706 16.4027 60.6453 16.1667C60.224 15.9333 59.704 15.944 59.292 16.2027L50.6666 21.5947V17.3333C50.6666 16.8493 50.404 16.4027 49.9786 16.1667C49.556 15.9333 49.0373 15.944 48.6253 16.2027L37.9586 22.8693C37.5706 23.1133 37.3333 23.54 37.3333 24V34.6667C37.3333 35.404 37.9293 36 38.6666 36H49.3333H60H70.6666H78.6666C79.404 36 80 35.404 80 34.6667V21.3333V1.33333C80 0.596 79.404 0 78.6666 0ZM48 24V33.3333H40V24.74L48 19.74V24ZM58.6666 24V33.3333H50.6666V24.74L58.6666 19.74V24ZM69.3333 21.3333V33.3333H61.3333V24.74L69.3333 19.74V21.3333ZM77.3333 33.3333H72V22.6667H77.3333V33.3333ZM77.3333 20H72V17.3333V2.66667H77.3333V20Z" fill="#FFB320"/>
<path d="M56 26.6666H53.3333V30.6666H56V26.6666Z" fill="#FFB320"/>
<path d="M66.6667 26.6666H64V30.6666H66.6667V26.6666Z" fill="#FFB320"/>
<path d="M45.3333 26.6666H42.6667V30.6666H45.3333V26.6666Z" fill="#FFB320"/>
<path d="M71.5933 43.768C71.46 44.6107 71.2893 45.456 71.088 46.276L73.6787 46.9093C73.896 46.0187 74.08 45.104 74.2267 44.192L71.5933 43.768Z" fill="#FFB320"/>
<path d="M72 38.6667C72 39.5254 71.9667 40.3854 71.8987 41.2241L74.5574 41.4374C74.6307 40.5281 74.6667 39.5947 74.6667 38.6667H72Z" fill="#FFB320"/>
<path d="M68.3906 53.4454C68 54.1974 67.572 54.944 67.1173 55.6654L69.3746 57.084C69.8666 56.3014 70.332 55.4934 70.7546 54.6774L68.3906 53.4454Z" fill="#FFB320"/>
<path d="M70.3827 48.7361C70.1147 49.5427 69.8107 50.3481 69.48 51.1307L71.936 52.1694C72.2947 51.3227 72.624 50.4494 72.9134 49.5748L70.3827 48.7361Z" fill="#FFB320"/>
<path d="M17.2614 13.832C16.5654 14.4387 15.8867 15.0787 15.2454 15.732L17.1494 17.5987C17.7414 16.9947 18.368 16.404 19.0134 15.8427L17.2614 13.832Z" fill="#FFB320"/>
<path d="M51.0493 7.13196L50.2 9.65996C51.0027 9.92796 51.8053 10.236 52.5893 10.572L53.6413 8.12129C52.7893 7.75729 51.9173 7.42396 51.0493 7.13196Z" fill="#FFB320"/>
<path d="M21.72 10.5386C20.9413 11.0226 20.1693 11.5466 19.424 12.096L21.0093 14.2413C21.696 13.7333 22.408 13.2493 23.1253 12.804L21.72 10.5386Z" fill="#FFB320"/>
<path d="M10.1841 22.3066C9.72006 23.084 9.27472 23.9053 8.86139 24.7453L11.2547 25.9226C11.6361 25.148 12.0467 24.3906 12.4734 23.6733L10.1841 22.3066Z" fill="#FFB320"/>
<path d="M13.3854 17.7867C12.7894 18.5 12.22 19.2387 11.6934 19.9827L13.8707 21.524C14.3574 20.8347 14.8827 20.1534 15.432 19.4947L13.3854 17.7867Z" fill="#FFB320"/>
<path d="M40.1507 5.33337L40.14 8.00004C40.9973 8.00404 41.8573 8.04137 42.6973 8.11204L42.9213 5.45604C42.012 5.37871 41.08 5.33737 40.1507 5.33337Z" fill="#FFB320"/>
<path d="M45.672 5.79602L45.2373 8.42669C46.084 8.56669 46.9266 8.74002 47.7426 8.94535L48.388 6.35735C47.5013 6.13602 46.588 5.94669 45.672 5.79602Z" fill="#FFB320"/>
<path d="M56.144 9.3147L54.8986 11.6747C55.6466 12.068 56.392 12.5 57.1146 12.9587L58.5413 10.7067C57.7599 10.2094 56.9533 9.7427 56.144 9.3147Z" fill="#FFB320"/>
<path d="M37.3813 5.42932C36.4573 5.49999 35.5307 5.60665 34.6293 5.74532L35.0387 8.38132C35.8733 8.25065 36.7293 8.15332 37.5827 8.08799L37.3813 5.42932Z" fill="#FFB320"/>
<path d="M26.6401 8.00134C25.7934 8.35601 24.9481 8.75068 24.1281 9.17334L25.3494 11.5427C26.1067 11.152 26.8881 10.7893 27.6681 10.4627L26.6401 8.00134Z" fill="#FFB320"/>
<path d="M31.9094 6.28271C31.0174 6.49471 30.1187 6.74938 29.2387 7.03605L30.0667 9.56938C30.8774 9.30538 31.7054 9.07072 32.5267 8.87472L31.9094 6.28271Z" fill="#FFB320"/>
<path d="M27.8267 69.9612L26.8867 72.4559C27.7493 72.7812 28.636 73.0759 29.5213 73.3279L30.256 70.7652C29.4413 70.5306 28.624 70.2599 27.8267 69.9612Z" fill="#FFB320"/>
<path d="M23.204 67.7787L21.876 70.0907C22.6786 70.5507 23.5053 70.9814 24.3346 71.3734L25.4733 68.9614C24.7066 68.6 23.9426 68.2027 23.204 67.7787Z" fill="#FFB320"/>
<path d="M32.7426 71.3707L32.2159 73.9853C33.1226 74.168 34.0426 74.316 34.9533 74.4253L35.2706 71.7773C34.4306 71.6773 33.5813 71.54 32.7426 71.3707Z" fill="#FFB320"/>
<path d="M15.644 61.7599L13.688 63.572C14.1813 64.1053 14.6947 64.624 15.2213 65.1266L17.06 63.1946C16.5733 62.732 16.1013 62.2519 15.644 61.7599Z" fill="#FFB320"/>
<path d="M18.984 64.884L17.3066 66.9574C18.028 67.5414 18.7746 68.0987 19.528 68.6147L21.036 66.4174C20.3426 65.9387 19.6506 65.424 18.984 64.884Z" fill="#FFB320"/>
</svg>
