<svg width="42" height="63" viewBox="0 0 42 63" fill="none" xmlns="http://www.w3.org/2000/svg">
<path fill-rule="evenodd" clip-rule="evenodd" d="M22.787 51.2018C22.549 51.506 22.1982 51.6822 21.8275 51.6822C21.4567 51.6822 21.1047 51.506 20.8667 51.2018C20.1765 50.315 3.96863 29.4085 3.96863 19.1854C3.96863 8.60563 11.9792 0 21.8275 0C31.6744 0 39.6863 8.60563 39.6863 19.1854C39.6863 29.4085 23.4772 50.315 22.787 51.2018ZM21.8275 2.69136C13.3609 2.69136 6.4739 10.0899 6.4739 19.1854C6.4739 27.1101 18.3276 43.5315 21.8275 48.2077C25.3273 43.5315 37.181 27.1101 37.181 19.1854C37.181 10.0899 30.294 2.69136 21.8275 2.69136ZM22.0642 25.646C17.9781 25.646 14.6536 22.0746 14.6536 17.6849C14.6536 13.2967 17.9781 9.72389 22.0642 9.72389C26.1503 9.72389 29.4748 13.2967 29.4748 17.6849C29.4748 22.0746 26.1503 25.646 22.0642 25.646ZM22.0642 12.4153C19.3598 12.4153 17.1589 14.7796 17.1589 17.6849C17.1589 20.5916 19.3598 22.9546 22.0642 22.9546C24.7686 22.9546 26.9695 20.5916 26.9695 17.6849C26.9695 14.7796 24.7686 12.4153 22.0642 12.4153ZM13.5488 44.9323C14.229 44.7897 14.8879 45.2647 15.0206 45.9927C15.1547 46.7221 14.7137 47.4299 14.0348 47.5739C9.07061 48.6275 6.4739 50.5075 6.4739 51.8222C6.4739 53.8663 12.4552 56.8362 21.8275 56.8362C31.1997 56.8362 37.181 53.8663 37.181 51.8222C37.181 50.5276 34.6344 48.6639 29.7667 47.6062C29.0877 47.4568 28.6493 46.7476 28.7871 46.0196C28.9236 45.2903 29.5863 44.8166 30.2627 44.9673C36.2516 46.2699 39.6863 48.7675 39.6863 51.8222C39.6863 56.8806 30.7024 59.5276 21.8275 59.5276C12.9525 59.5276 3.96863 56.8806 3.96863 51.8222C3.96863 48.7365 7.46098 46.2242 13.5488 44.9323Z" fill="#FFB320"/>
</svg>
