<svg width="80" height="80" viewBox="0 0 80 80" fill="none" xmlns="http://www.w3.org/2000/svg">
<path d="M20.5405 27.9567C20.3986 27.9592 20.2575 27.9337 20.1254 27.8817C19.9933 27.8296 19.8727 27.7521 19.7706 27.6535C19.5643 27.4543 19.4456 27.1813 19.4405 26.8946C19.4355 26.6078 19.5446 26.3309 19.7438 26.1246C19.943 25.9183 20.216 25.7996 20.5027 25.7946C25.8073 25.7353 31.1004 25.2873 36.3394 24.454C36.4325 24.4346 36.5278 24.4281 36.6227 24.4346C37.9359 24.504 39.2099 24.9057 40.3254 25.6021C40.5096 25.736 40.6468 25.9245 40.7176 26.1409C40.7883 26.3573 40.7889 26.5906 40.7193 26.8073C40.6496 27.0241 40.5134 27.2134 40.3298 27.3481C40.1463 27.4829 39.925 27.5563 39.6973 27.5578C39.4427 27.5578 39.1958 27.4704 38.9978 27.3102C38.269 26.8925 37.4528 26.6508 36.614 26.6043C31.3048 27.4384 25.9426 27.8904 20.5686 27.9567H20.5405Z" fill="#FFB320"/>
<path d="M60.0865 53.6756C59.1641 53.6768 58.2652 53.3854 57.5189 52.8432L57.2865 52.6821C57.2562 52.6616 57.2054 52.6205 57.1578 52.574L44.4324 43.4097C44.3136 43.3286 44.2122 43.2246 44.1341 43.1038C44.056 42.9831 44.0028 42.8479 43.9775 42.7063C43.9523 42.5647 43.9556 42.4194 43.9873 42.2791C44.0189 42.1388 44.0782 42.0062 44.1617 41.8891C44.2452 41.772 44.3513 41.6727 44.4736 41.5971C44.596 41.5215 44.7322 41.4711 44.8743 41.4488C45.0164 41.4265 45.1616 41.4328 45.3012 41.4673C45.4409 41.5018 45.5722 41.5638 45.6876 41.6497L46.5524 42.2659L58.4605 50.8529C58.4962 50.8785 58.5301 50.9063 58.5622 50.9362L58.7687 51.08C59.2376 51.4161 59.8176 51.5594 60.3891 51.4803C60.9606 51.4013 61.4799 51.1059 61.84 50.6551C62.0609 50.3763 62.2115 50.0485 62.279 49.6992C62.3466 49.35 62.3291 48.9897 62.2281 48.6486C62.1067 48.219 61.8556 47.8373 61.5092 47.5556L44.4887 33.6886C37.9708 37.1481 33.3535 35.3686 31.1492 33.96C30.7849 33.7229 30.4891 33.3944 30.2914 33.0074C30.0936 32.6203 30.0008 32.1882 30.0221 31.754C30.0434 31.3199 30.1782 30.8989 30.4129 30.5331C30.6477 30.1673 30.9742 29.8694 31.36 29.6692L41.1027 24.4951C41.7246 24.1698 42.4047 23.9708 43.1038 23.9096C43.8029 23.8483 44.5073 23.9261 45.1762 24.1384L50.9395 26.0086C52.6362 26.5667 54.4765 26.5004 56.1287 25.8216L58.6389 24.7935C58.7703 24.7396 58.911 24.7122 59.053 24.7127C59.1951 24.7132 59.3356 24.7416 59.4666 24.7964C59.5976 24.8513 59.7165 24.9313 59.8166 25.0321C59.9166 25.1329 59.9959 25.2524 60.0497 25.3838C60.1036 25.5152 60.1311 25.6559 60.1306 25.7979C60.1301 25.9399 60.1016 26.0804 60.0468 26.2114C59.992 26.3424 59.9119 26.4614 59.8111 26.5614C59.7104 26.6615 59.5909 26.7407 59.4595 26.7946L56.9514 27.8216C54.8239 28.6973 52.4534 28.7832 50.2681 28.0638L44.5103 26.1946C44.1159 26.0707 43.7009 26.026 43.2892 26.0631C42.8775 26.1002 42.4772 26.2184 42.1114 26.4108L32.3665 31.5859C32.3122 31.6115 32.2661 31.6516 32.2333 31.7018C32.2005 31.752 32.1822 31.8103 32.1806 31.8703C32.1761 31.9245 32.1866 31.9789 32.211 32.0275C32.2354 32.0762 32.2728 32.1171 32.3189 32.1459C34.5892 33.5967 38.4865 34.6605 44.066 31.4551C44.2557 31.3461 44.4741 31.2972 44.6922 31.315C44.9103 31.3328 45.1179 31.4163 45.2876 31.5546L62.866 45.8789C63.5553 46.435 64.0566 47.1899 64.3016 48.0411C64.4958 48.711 64.5284 49.4173 64.3969 50.1023C64.2653 50.7872 63.9734 51.4313 63.5449 51.9816C63.1367 52.51 62.6125 52.9375 62.0129 53.2313C61.4133 53.525 60.7542 53.677 60.0865 53.6756Z" fill="#FFB320"/>
<path d="M55.613 58.6865C54.6968 58.6875 53.8032 58.4029 53.0562 57.8725L41.3697 49.5806C41.1414 49.4126 40.9881 49.1616 40.943 48.8817C40.8979 48.6018 40.9646 48.3154 41.1286 48.0842C41.2926 47.853 41.5409 47.6955 41.82 47.6455C42.099 47.5956 42.3865 47.6573 42.6205 47.8173L54.307 56.1081C54.7973 56.4284 55.3924 56.5468 55.968 56.4386C56.5435 56.3303 57.055 56.0039 57.3955 55.5275C57.7361 55.051 57.8793 54.4614 57.7953 53.8818C57.7113 53.3022 57.4066 52.7775 56.9449 52.4173L45.2973 44.0227C45.0826 43.8491 44.9425 43.5998 44.9058 43.3261C44.869 43.0525 44.9384 42.7751 45.0996 42.5509C45.2608 42.3268 45.5018 42.1728 45.7729 42.1206C46.0441 42.0684 46.3249 42.122 46.5578 42.2703L58.2086 50.666C58.967 51.215 59.5321 51.9901 59.8227 52.8801C60.1134 53.7701 60.1148 54.7293 59.8267 55.6202C59.5386 56.511 58.9758 57.2877 58.219 57.839C57.4622 58.3902 56.5503 58.6877 55.6141 58.6887L55.613 58.6865Z" fill="#FFB320"/>
<path d="M50.5676 63.0184C49.6974 63.0181 48.8482 62.7513 48.1341 62.254L37.6616 55C37.4258 54.8367 37.2645 54.5864 37.2132 54.3042C37.1619 54.022 37.2248 53.7309 37.3881 53.4951C37.5514 53.2593 37.8017 53.098 38.0839 53.0467C38.3661 52.9954 38.6572 53.0583 38.893 53.2216L49.3654 60.4756C49.5954 60.6347 49.8545 60.7469 50.1278 60.8058C50.4011 60.8648 50.6834 60.8693 50.9585 60.8191C51.2336 60.7689 51.4961 60.665 51.731 60.5133C51.9659 60.3616 52.1686 60.1652 52.3276 59.9351C52.644 59.4739 52.7668 58.907 52.6698 58.3562C52.5728 57.8053 52.2636 57.3145 51.8087 56.9892L41.387 49.5967C41.2686 49.5157 41.1674 49.4119 41.0894 49.2914C41.0115 49.1708 40.9583 49.036 40.9331 48.8947C40.9078 48.7534 40.9109 48.6085 40.9422 48.4684C40.9735 48.3283 41.0324 48.1959 41.1155 48.0788C41.1985 47.9617 41.3041 47.8624 41.4259 47.7865C41.5478 47.7107 41.6835 47.6598 41.8252 47.637C41.9669 47.6142 42.1118 47.6198 42.2513 47.6535C42.3908 47.6872 42.5222 47.7484 42.6379 47.8335L53.0595 55.2259C53.9768 55.8815 54.6004 56.8708 54.7963 57.9811C54.9922 59.0915 54.7447 60.2344 54.1071 61.1643C53.7885 61.629 53.3809 62.026 52.9079 62.3322C52.4348 62.6384 51.9058 62.8477 51.3514 62.9481C51.0928 62.9953 50.8304 63.0188 50.5676 63.0184Z" fill="#FFB320"/>
<path d="M44.3903 66.5729C43.6339 66.5692 42.8917 66.3672 42.2378 65.987L36.4249 62.6356C36.1786 62.4913 35.9994 62.2553 35.9264 61.9793C35.8535 61.7033 35.8926 61.4097 36.0354 61.1625C36.1781 60.9152 36.4129 60.7345 36.6884 60.6597C36.9639 60.5849 37.2578 60.6221 37.5059 60.7632L43.3178 64.1146C43.8092 64.3919 44.3895 64.4662 44.9348 64.3215C45.4802 64.1769 45.9474 63.8249 46.2368 63.3405C46.5116 62.8762 46.599 62.3245 46.4811 61.798C46.3632 61.2714 46.0488 60.8097 45.6022 60.507L38.1751 55.3621C38.0584 55.2813 37.9588 55.1782 37.8819 55.0589C37.8051 54.9395 37.7524 54.8062 37.7271 54.6665C37.7017 54.5268 37.7042 54.3835 37.7342 54.2447C37.7642 54.106 37.8213 53.9745 37.9022 53.8578C37.983 53.7411 38.0861 53.6415 38.2054 53.5646C38.3248 53.4877 38.4581 53.4351 38.5978 53.4098C38.7375 53.3844 38.8808 53.3868 39.0195 53.4169C39.1583 53.4469 39.2898 53.504 39.4065 53.5848L46.8324 58.7286C47.5863 59.2505 48.1538 59.9994 48.4524 60.8664C48.7509 61.7333 48.7649 62.6728 48.4922 63.5482C48.2196 64.4236 47.6745 65.1891 46.9365 65.7332C46.1985 66.2772 45.3061 66.5714 44.3892 66.5729H44.3903Z" fill="#FFB320"/>
<path d="M32.1492 65.9275C31.2648 65.9289 30.401 65.6603 29.6732 65.1578C28.9454 64.6553 28.3883 63.9426 28.0762 63.1151C27.7641 62.2875 27.7119 61.3845 27.9267 60.5265C28.1414 59.6685 28.6128 58.8965 29.2778 58.3135L32.1654 55.7837C32.5945 55.407 33.0936 55.1185 33.6342 54.9347C34.1748 54.7509 34.7463 54.6753 35.3161 54.7123C35.8859 54.7494 36.4429 54.8983 36.9551 55.1506C37.4674 55.4029 37.9249 55.7536 38.3016 56.1827C38.6783 56.6118 38.9667 57.111 39.1505 57.6516C39.3342 58.1923 39.4097 58.7638 39.3725 59.3336C39.3354 59.9034 39.1864 60.4603 38.934 60.9725C38.6816 61.4847 38.3308 61.9422 37.9016 62.3189L35.0141 64.854C34.2215 65.5485 33.203 65.9301 32.1492 65.9275ZM35.0324 56.8648C34.5023 56.8634 33.9898 57.0557 33.5914 57.4054L30.7027 59.9383C30.4869 60.1277 30.3105 60.3576 30.1836 60.6151C30.0567 60.8726 29.9817 61.1526 29.963 61.439C29.9443 61.7255 29.9822 62.0128 30.0745 62.2846C30.1668 62.5564 30.3118 62.8074 30.5011 63.0232C30.8834 63.459 31.4232 63.7251 32.0018 63.7629C32.2882 63.7816 32.5756 63.7437 32.8474 63.6514C33.1192 63.5591 33.3702 63.4141 33.586 63.2248L36.4735 60.6897C36.8066 60.3965 37.0425 60.0088 37.1499 59.5782C37.2572 59.1477 37.2309 58.6946 37.0745 58.2794C36.918 57.8641 36.6388 57.5063 36.274 57.2536C35.9093 57.001 35.4762 56.8653 35.0324 56.8648Z" fill="#FFB320"/>
<path d="M25.6043 62.9827C25.5081 62.9827 25.4119 62.9827 25.3157 62.9741C24.7455 62.9384 24.1881 62.7901 23.6756 62.5377C23.1631 62.2853 22.7057 61.9339 22.3297 61.5038C21.9479 61.0746 21.6545 60.5742 21.4666 60.0313C21.2786 59.4885 21.1996 58.9138 21.2343 58.3404C21.2689 57.7669 21.4165 57.206 21.6685 56.6897C21.9205 56.1734 22.2719 55.712 22.7027 55.3319L27.5265 51.0973C27.9556 50.7206 28.4547 50.4321 28.9953 50.2482C29.5359 50.0644 30.1074 49.9888 30.6772 50.0259C31.247 50.0629 31.804 50.2118 32.3162 50.4641C32.8285 50.7164 33.286 51.0671 33.6627 51.4962L32.8811 52.2454L33.693 51.5319C34.0698 51.9609 34.3585 52.46 34.5424 53.0006C34.7263 53.5412 34.8019 54.1128 34.7648 54.6826C34.7278 55.2525 34.5788 55.8094 34.3265 56.3217C34.0741 56.834 33.7233 57.2915 33.2941 57.6681L28.466 61.9027C27.676 62.6002 26.6581 62.9843 25.6043 62.9827ZM30.3881 52.1784C29.8586 52.1769 29.3468 52.3692 28.9492 52.7189L24.1254 56.9535C23.8025 57.2451 23.5724 57.6252 23.4638 58.0466C23.3553 58.4679 23.373 58.9119 23.5148 59.3232C23.6567 59.7346 23.9164 60.0951 24.2615 60.36C24.6067 60.6249 25.0222 60.7824 25.4562 60.813C25.7429 60.8326 26.0306 60.795 26.3025 60.7021C26.5745 60.6093 26.8252 60.4632 27.04 60.2724L31.8638 56.0378C32.0796 55.8485 32.2561 55.6184 32.383 55.3609C32.5099 55.1033 32.5848 54.8233 32.6035 54.5368C32.6222 54.2503 32.5842 53.9629 32.4918 53.691C32.3994 53.4192 32.2543 53.1682 32.0649 52.9524L32.0335 52.9167C31.8449 52.7018 31.6155 52.5262 31.3588 52.4003C31.102 52.2743 30.8228 52.2003 30.5373 52.1827C30.4865 52.1805 30.4357 52.1794 30.387 52.1794L30.3881 52.1784Z" fill="#FFB320"/>
<path d="M20.1492 59.014C20.054 59.014 19.9578 59.014 19.8605 59.0054C19.2904 58.9697 18.7329 58.8214 18.2204 58.569C17.7079 58.3167 17.2505 57.9653 16.8746 57.5351L16.7567 57.3946C15.9969 56.5278 15.6123 55.3948 15.6875 54.2445C15.7627 53.0943 16.2915 52.021 17.1578 51.2605L22.7503 46.3513C23.1793 45.9745 23.6784 45.6858 24.219 45.5019C24.7596 45.318 25.3312 45.2424 25.901 45.2795C26.4709 45.3165 27.0278 45.4655 27.5401 45.7178C28.0523 45.9702 28.5098 46.321 28.8865 46.7502L29.0086 46.8897C29.7688 47.7564 30.1536 48.8895 30.0784 50.0398C30.0031 51.1901 29.4741 52.2635 28.6076 53.0238L23.0151 57.9329C22.2241 58.6316 21.2045 59.0162 20.1492 59.014ZM25.6119 47.4335C25.0824 47.4321 24.5706 47.6244 24.173 47.974L18.5805 52.8832C18.1443 53.2659 17.878 53.8061 17.8401 54.3851C17.8022 54.9641 17.9958 55.5345 18.3784 55.9708L18.5005 56.1102C18.8834 56.5453 19.4232 56.8105 20.0015 56.8478C20.5798 56.8851 21.1493 56.6914 21.5849 56.3092L27.1773 51.4C27.3931 51.2106 27.5695 50.9806 27.6965 50.723C27.8234 50.4655 27.8983 50.1854 27.917 49.8989C27.9357 49.6124 27.8977 49.325 27.8053 49.0532C27.7129 48.7813 27.5678 48.5303 27.3784 48.3146L27.2584 48.1773C27.0696 47.9614 26.8398 47.785 26.5825 47.6585C26.3251 47.5319 26.0452 47.4577 25.7589 47.44C25.7081 47.4356 25.6605 47.4335 25.6119 47.4335Z" fill="#FFB320"/>
<path d="M15.4497 54.2023C15.3546 54.2023 15.2573 54.2023 15.1611 54.1925C14.2975 54.1381 13.4694 53.8289 12.7815 53.304C12.0937 52.779 11.5768 52.062 11.2964 51.2434C11.0159 50.4248 10.9844 49.5414 11.2059 48.705C11.4273 47.8685 11.8918 47.1164 12.5405 46.5439L16.0422 43.4703C16.4712 43.0935 16.9703 42.8049 17.5109 42.621C18.0515 42.437 18.6231 42.3615 19.1929 42.3985C19.7627 42.4355 20.3197 42.5845 20.832 42.8369C21.3442 43.0892 21.8017 43.44 22.1784 43.8693L22.2162 43.9125C22.5931 44.3415 22.8817 44.8406 23.0656 45.3813C23.2495 45.9219 23.3251 46.4934 23.288 47.0633C23.251 47.6331 23.102 48.1901 22.8497 48.7023C22.5973 49.2146 22.2465 49.6721 21.8173 50.0487L18.3157 53.1223C17.5246 53.8206 16.505 54.2048 15.4497 54.2023ZM18.9092 44.5514C18.3797 44.5501 17.8679 44.7423 17.4703 45.092L13.9686 48.1655C13.7528 48.3548 13.5764 48.5849 13.4495 48.8424C13.3225 49.1 13.2476 49.38 13.2289 49.6665C13.2103 49.9531 13.2482 50.2404 13.3406 50.5123C13.4331 50.7841 13.5781 51.0351 13.7676 51.2509C13.9555 51.4735 14.1857 51.6565 14.445 51.7895C14.7042 51.9224 14.9872 52.0025 15.2776 52.0253C15.568 52.048 15.8601 52.0128 16.1368 51.9219C16.4135 51.8309 16.6695 51.6859 16.8897 51.4952L20.3913 48.4217C20.6072 48.2323 20.7836 48.0023 20.9105 47.7448C21.0374 47.4872 21.1124 47.2072 21.1311 46.9207C21.1497 46.6341 21.1118 46.3467 21.0193 46.0749C20.9269 45.803 20.7819 45.5521 20.5924 45.3363L20.5546 45.2931C20.3658 45.0768 20.1359 44.9002 19.8783 44.7735C19.6207 44.6467 19.3406 44.5724 19.054 44.5547C19.0011 44.5536 18.9524 44.5514 18.9038 44.5514H18.9092Z" fill="#FFB320"/>
<path d="M13.4887 48.2292C13.2547 48.2297 13.0269 48.1538 12.84 48.013L9.14595 45.2022C9.03294 45.1162 8.93797 45.0088 8.86646 44.8862C8.79495 44.7635 8.74831 44.628 8.72918 44.4873C8.71006 44.3466 8.71883 44.2035 8.75501 44.0662C8.79118 43.9289 8.85404 43.8001 8.94 43.6871C9.11361 43.4588 9.37078 43.3089 9.65492 43.2703C9.79561 43.2512 9.93869 43.2599 10.076 43.2961C10.2133 43.3323 10.3421 43.3951 10.4551 43.4811L14.1492 46.2919C14.3312 46.4284 14.4655 46.6188 14.533 46.836C14.6005 47.0532 14.5977 47.2862 14.5251 47.5017C14.4526 47.7173 14.3138 47.9045 14.1287 48.0367C13.9436 48.1688 13.7215 48.2392 13.4941 48.2379L13.4887 48.2292Z" fill="#FFB320"/>
<path d="M63.2638 49.427C63.05 49.427 62.841 49.3635 62.6633 49.2447C62.4855 49.1259 62.347 48.9571 62.2652 48.7596C62.1834 48.5621 62.162 48.3448 62.2037 48.1351C62.2454 47.9254 62.3483 47.7328 62.4994 47.5816L68.5654 41.5135C68.7693 41.3166 69.0424 41.2076 69.3258 41.2101C69.6093 41.2125 69.8804 41.3262 70.0809 41.5267C70.2813 41.7271 70.395 41.9983 70.3975 42.2817C70.3999 42.5652 70.291 42.8382 70.094 43.0421L64.0281 49.1081C63.9279 49.2089 63.8088 49.2889 63.6777 49.3436C63.5465 49.3984 63.4059 49.4267 63.2638 49.427Z" fill="#FFB320"/>
<path d="M71.5351 47.1837C71.3502 47.184 71.1684 47.1368 71.0069 47.0467C70.8455 46.9566 70.7098 46.8266 70.613 46.6691L57.413 25.1989C57.2735 24.9718 57.2229 24.7011 57.2707 24.4389C57.3186 24.1768 57.4617 23.9415 57.6724 23.7783L70.7459 13.6529C70.8894 13.5418 71.0586 13.4686 71.2379 13.44C71.4171 13.4115 71.6007 13.4285 71.7716 13.4896C71.9426 13.5507 72.0954 13.6538 72.216 13.7895C72.3365 13.9251 72.421 14.089 72.4616 14.2659L78.8908 42.3167C78.9441 42.545 78.9219 42.7844 78.8273 42.9989C78.7327 43.2134 78.571 43.3913 78.3665 43.5059L72.0627 47.0486C71.9014 47.1382 71.7197 47.1847 71.5351 47.1837ZM59.7632 24.8919L71.9103 44.6486L76.6032 42.0108L70.733 16.3978L59.7632 24.8919Z" fill="#FFB320"/>
<path d="M8.46487 47.5676C8.27971 47.5675 8.09768 47.5199 7.93622 47.4293L1.63244 43.892C1.42793 43.7774 1.2662 43.5994 1.17163 43.385C1.07705 43.1705 1.05476 42.931 1.10811 42.7028L7.53838 14.6552C7.57897 14.4783 7.66345 14.3144 7.78404 14.1788C7.90462 14.0431 8.05743 13.94 8.22836 13.8789C8.39929 13.8178 8.58285 13.8008 8.76211 13.8293C8.94137 13.8579 9.11055 13.9311 9.25406 14.0422L22.3287 24.1666C22.5394 24.3297 22.6825 24.565 22.7303 24.8272C22.7782 25.0893 22.7276 25.36 22.5881 25.5871L9.38703 47.0574C9.28963 47.214 9.15376 47.3432 8.99234 47.4325C8.83093 47.5218 8.64934 47.5683 8.46487 47.5676ZM3.39676 42.4022L8.08973 45.039L20.2368 25.2811L9.26703 16.7871L3.39676 42.4022Z" fill="#FFB320"/>
</svg>
