<svg width="80" height="80" viewBox="0 0 80 80" fill="none" xmlns="http://www.w3.org/2000/svg">
<g clip-path="url(#clip0)">
<path d="M71.6667 70H8.33333C3.74 70 0 66.26 0 61.6667V18.3333C0 13.74 3.74 10 8.33333 10H71.6667C76.26 10 80 13.74 80 18.3333V61.6667C80 66.26 76.26 70 71.6667 70ZM8.33333 13.3333C5.57667 13.3333 3.33333 15.5767 3.33333 18.3333V61.6667C3.33333 64.4233 5.57667 66.6667 8.33333 66.6667H71.6667C74.4233 66.6667 76.6667 64.4233 76.6667 61.6667V18.3333C76.6667 15.5767 74.4233 13.3333 71.6667 13.3333H8.33333Z" fill="#FFB320"/>
<path d="M25 39.9999C20.4067 39.9999 16.6667 36.2599 16.6667 31.6666C16.6667 27.0732 20.4067 23.3333 25 23.3333C29.5933 23.3333 33.3333 27.0732 33.3333 31.6666C33.3333 36.2599 29.5933 39.9999 25 39.9999ZM25 26.6666C22.2433 26.6666 20 28.9099 20 31.6666C20 34.4232 22.2433 36.6666 25 36.6666C27.7567 36.6666 30 34.4232 30 31.6666C30 28.9099 27.7567 26.6666 25 26.6666Z" fill="#FFB320"/>
<path d="M38.3333 56.6666C37.4133 56.6666 36.6667 55.9199 36.6667 54.9999V51.6666C36.6667 48.9099 34.4233 46.6666 31.6667 46.6666H18.3333C15.5767 46.6666 13.3333 48.9099 13.3333 51.6666V54.9999C13.3333 55.9199 12.5867 56.6666 11.6667 56.6666C10.7467 56.6666 10 55.9199 10 54.9999V51.6666C10 47.0733 13.74 43.3333 18.3333 43.3333H31.6667C36.26 43.3333 40 47.0733 40 51.6666V54.9999C40 55.9199 39.2533 56.6666 38.3333 56.6666Z" fill="#FFB320"/>
<path d="M68.3333 30.0001H48.3333C47.4133 30.0001 46.6667 29.2534 46.6667 28.3334C46.6667 27.4134 47.4133 26.6667 48.3333 26.6667H68.3333C69.2533 26.6667 70 27.4134 70 28.3334C70 29.2534 69.2533 30.0001 68.3333 30.0001Z" fill="#FFB320"/>
<path d="M68.3333 43.3333H48.3333C47.4133 43.3333 46.6667 42.5867 46.6667 41.6667C46.6667 40.7467 47.4133 40 48.3333 40H68.3333C69.2533 40 70 40.7467 70 41.6667C70 42.5867 69.2533 43.3333 68.3333 43.3333Z" fill="#FFB320"/>
<path d="M68.3333 56.6666H48.3333C47.4133 56.6666 46.6667 55.9199 46.6667 54.9999C46.6667 54.0799 47.4133 53.3333 48.3333 53.3333H68.3333C69.2533 53.3333 70 54.0799 70 54.9999C70 55.9199 69.2533 56.6666 68.3333 56.6666Z" fill="#FFB320"/>
</g>
<defs>
<clipPath id="clip0">
<rect width="80" height="80" fill="white"/>
</clipPath>
</defs>
</svg>
