<!--?xml version="1.0" encoding="UTF-8"?--><svg id="_лой_2" xmlns="http://www.w3.org/2000/svg" xmlns:xlink="http://www.w3.org/1999/xlink" viewBox="0 0 898.08 139.22" width="898.0800170898438" height="139.22000122070312"><defs><style>.cls-1{fill:url(#_езымянный_градиент_4);}.cls-2{fill:#48454b;}.cls-3{fill:url(#_езымянный_градиент_4-2);}</style><linearGradient id="_езымянный_градиент_4" x1="100.3" y1="34.59" x2="178.96" y2="34.59" gradientTransform="matrix(1, 0, 0, 1, 0, 0)" gradientUnits="userSpaceOnUse"><stop offset="0" stop-color="#f59d0f"></stop><stop offset="1" stop-color="#f9b129"></stop></linearGradient><linearGradient id="_езымянный_градиент_4-2" x1="59.84" y1="104.8" x2="138.47" y2="104.8" xlink:href="#_езымянный_градиент_4"></linearGradient></defs><g id="_лой_3"><g><path class="cls-2 svg-elem-1" d="M367.61,11.69l-22.91,62.95h-14.66l-15.58-33.54-12.21,33.54h-17.45l22.91-62.95h14.66l15.58,33.54,12.21-33.54h17.45Z"></path><path class="cls-2 svg-elem-2" d="M417.33,60.88l-5.01,13.76h-50.54l22.91-62.95h49.37l-5.01,13.76h-31.75l-3.86,10.61h27.97l-4.84,13.31h-27.97l-4.19,11.51h32.91Z"></path><path class="cls-2 svg-elem-3" d="M460.31,57.92h-9.71l-6.09,16.73h-17.81l22.91-62.95h28.78c17.18,0,24.73,8.9,19.49,23.29-3.37,9.26-10.36,16.1-19.55,19.87l6.38,19.78h-19.06l-5.33-16.73Zm11.9-32.2h-9.89l-6.71,18.44h9.89c7.37,0,12.3-3.42,14.4-9.17,2.13-5.85-.32-9.26-7.69-9.26Z"></path><path class="cls-2 svg-elem-4" d="M507.42,46.58l12.7-34.89h17.81l-12.5,34.35c-3.93,10.79-1,15.11,6.46,15.11s13.44-4.32,17.37-15.11l12.5-34.35h17.54l-12.7,34.89c-6.84,18.8-21.64,29.32-40.26,29.32s-25.76-10.52-18.92-29.32Z"></path><path class="cls-2 svg-elem-5" d="M595.83,11.69h29.77c20.86,0,30.74,12.14,23.71,31.48-7.04,19.34-25.76,31.48-46.62,31.48h-29.77l22.91-62.95Zm11.31,48.74c10.7,0,20.22-6.39,24.18-17.27,3.96-10.88-.91-17.27-11.61-17.27h-11.24l-12.57,34.53h11.24Z"></path><path class="cls-2 svg-elem-6" d="M684.29,51.8l-9.24,7.11-5.73,15.74h-17.63l22.91-62.95h17.63l-9.53,26.17,33.9-26.17h19.61l-35.87,27.88,14.3,35.07h-20.68l-9.67-22.84Z"></path><path class="cls-2 svg-elem-7" d="M729.79,43.17c6.87-18.89,26.75-32.74,46.9-32.74s29.94,13.85,23.07,32.74c-6.87,18.89-26.75,32.73-46.9,32.73s-29.94-13.85-23.07-32.73Zm51.98,0c3.96-10.88-.92-17.99-10.45-17.99s-19.58,7.11-23.54,17.99c-3.96,10.88,.92,17.99,10.45,17.99s19.58-7.11,23.54-17.99Z"></path><path class="cls-2 svg-elem-8" d="M858.98,74.64l11.96-33.36-26.07,27.16h-7.91l-6.54-26.26-11.82,32.47h-16.46l22.91-62.95h14.66l8.9,36.33,34.81-36.33h14.66l-22.73,62.95h-16.37Z"></path></g><g><path class="cls-2 svg-elem-9" d="M357.68,99.26l-8.94,24.57h-6.95l3.49-9.58h-9.48l-3.49,9.58h-6.95l8.94-24.57h6.95l-3.36,9.23h9.48l3.36-9.23h6.95Z"></path><path class="cls-2 svg-elem-10" d="M377.45,118.46l-1.96,5.37h-19.73l8.94-24.57h19.27l-1.96,5.37h-12.39l-1.51,4.14h10.92l-1.89,5.2h-10.92l-1.64,4.49h12.85Z"></path><path class="cls-2 svg-elem-11" d="M409,108.35c-2.03,5.58-7.51,9.06-14.21,9.06h-4.28l-2.34,6.42h-6.95l8.94-24.57h11.23c6.71,0,9.65,3.48,7.61,9.09Zm-7.02,0c.83-2.28-.12-3.62-3-3.62h-3.86l-2.62,7.2h3.86c2.88,0,4.8-1.33,5.62-3.58Z"></path><path class="cls-2 svg-elem-12" d="M440.02,99.26l-17.09,18.99c-3.67,4.11-7.63,6.21-11.32,6.21-1.4,0-2.73-.32-4.02-.91l3.52-5.12c.85,.28,1.57,.42,2.3,.42,1.37,0,2.56-.56,3.95-1.9l-3.11-17.69h7.34l1.4,11.87,10.25-11.87h6.78Z"></path><path class="cls-2 svg-elem-13" d="M462.99,118.32l-3.81,10.46h-6.35l1.8-4.95h-15.73l-1.8,4.95h-6.39l3.81-10.46h.88c3.15-.07,5.72-4.91,8.36-11.48l3.04-7.58h19.8l-6.94,19.06h3.34Zm-19.48,0h9.3l4.93-13.55h-7.06l-1.08,2.67c-1.93,4.81-3.91,8.81-6.1,10.88Z"></path><path class="cls-2 svg-elem-14" d="M498.41,99.26l-8.94,24.57h-6.95l3.49-9.58h-9.48l-3.49,9.58h-6.95l8.94-24.57h6.95l-3.36,9.23h9.48l3.36-9.23h6.95Z"></path><path class="cls-2 svg-elem-15" d="M515.18,119.06h-10.39l-3.67,4.77h-7.09l19.79-24.57h6.85l1.94,24.57h-7.23l-.19-4.77Zm-.17-5.12l-.3-7.86-6.02,7.86h6.32Z"></path><path class="cls-2 svg-elem-16" d="M555.36,99.26l-8.94,24.57h-6.84l2.25-6.18h-3.79l-6.29,6.18h-7.3l7.61-7.2c-2.71-1.44-3.52-4.21-2.13-8.04,2.11-5.79,7.65-9.34,14.39-9.34h11.06Zm-18.39,9.23c-.89,2.46,.02,3.79,2.66,3.79h4.14l2.75-7.55h-4.07c-2.7,0-4.57,1.26-5.47,3.76Z"></path><path class="cls-2 svg-elem-17" d="M578.77,114.43h-3.16l-3.42,9.41h-6.92l8.94-24.57h6.92l-3.48,9.55h3.34l9.34-9.55h7.3l-12.01,11.87,3.13,12.71h-7.83l-2.16-9.41Z"></path><path class="cls-2 svg-elem-18" d="M595.52,111.55c2.68-7.37,10.44-12.78,18.31-12.78s11.69,5.41,9.01,12.78c-2.68,7.37-10.44,12.78-18.31,12.78s-11.69-5.41-9-12.78Zm20.29,0c1.55-4.25-.36-7.02-4.08-7.02s-7.64,2.77-9.19,7.02,.36,7.02,4.08,7.02,7.64-2.77,9.19-7.02Z"></path><path class="cls-2 svg-elem-19" d="M645.99,123.84l4.71-13.02-10.18,10.6h-3.09l-2.56-10.32-4.64,12.74h-6.39l8.94-24.57h5.72l3.47,14.18,13.59-14.18h5.72l-8.87,24.57h-6.42Z"></path><path class="cls-2 svg-elem-20" d="M691.42,99.26l-8.94,24.57h-6.88l6.94-19.06h-9.34l-6.94,19.06h-6.84l8.94-24.57h23.06Z"></path><path class="cls-2 svg-elem-21" d="M708.19,119.06h-10.39l-3.67,4.77h-7.09l19.79-24.57h6.85l1.94,24.57h-7.23l-.19-4.77Zm-.17-5.12l-.3-7.86-6.02,7.86h6.32Z"></path><path class="cls-2 svg-elem-22" d="M752.51,99.26l-8.94,24.57h-6.95l3.49-9.58h-9.48l-3.49,9.58h-6.95l8.94-24.57h6.95l-3.36,9.23h9.48l3.36-9.23h6.95Z"></path><path class="cls-2 svg-elem-23" d="M759.54,99.26h6.84l-5.25,14.43,15.4-14.43h6.53l-8.94,24.57h-6.85l5.24-14.39-15.35,14.39h-6.56l8.94-24.57Z"></path><path class="cls-2 svg-elem-24" d="M810.66,99.26l-8.94,24.57h-6.84l2.25-6.18h-3.79l-6.29,6.18h-7.3l7.61-7.2c-2.71-1.44-3.52-4.21-2.13-8.04,2.11-5.79,7.65-9.34,14.39-9.34h11.06Zm-18.39,9.23c-.89,2.46,.02,3.79,2.66,3.79h4.14l2.75-7.55h-4.07c-2.7,0-4.57,1.26-5.47,3.76Z"></path></g><g><path class="cls-2 svg-elem-25" d="M0,35.47H79.15c-13.18,23.41-25.97,46.12-39.17,69.55C26.61,81.76,13.57,59.08,0,35.47Z"></path><path class="cls-2 svg-elem-26" d="M204.08,41.08c13.28,23.45,26.02,45.94,39.1,69.03h-79.12c13.32-22.98,26.38-45.51,40.02-69.03Z"></path><path class="cls-1 svg-elem-27" d="M100.3,0h78.65c-13,23.12-25.65,45.62-38.9,69.17C126.66,45.86,113.73,23.37,100.3,0Z"></path><path class="cls-3 svg-elem-28" d="M138.47,139.22H59.84c13.2-22.98,26-45.25,39.55-68.84,13.19,23.23,25.83,45.5,39.08,68.84Z"></path></g>
</g></svg>