<svg width="80" height="80" viewBox="0 0 80 80" fill="none" xmlns="http://www.w3.org/2000/svg">
<path d="M48.1649 75.6494H48.1633C47.5408 75.8195 47.174 76.4638 47.3442 77.0879C47.5032 77.6633 48.2105 78.0632 48.7827 77.907C50.262 77.4461 49.6717 75.2896 48.1649 75.6494Z" fill="#FFB320"/>
<path d="M42.2315 76.7447C41.5887 76.8087 41.1175 77.3813 41.1816 78.0241C41.2421 78.6689 41.8283 79.1416 42.4608 79.0741C43.1036 79.0101 43.5734 78.4375 43.5108 77.7947C43.4469 77.1519 42.8743 76.6823 42.2315 76.7447Z" fill="#FFB320"/>
<path d="M30.2304 75.9099C29.6017 75.757 28.9682 76.1424 28.8169 76.7712C28.664 77.3984 29.0492 78.0318 29.6781 78.1847C30.2535 78.3209 30.9494 77.9047 31.0901 77.3235C31.243 76.6947 30.8576 76.0628 30.2304 75.9099Z" fill="#FFB320"/>
<path d="M36.1951 76.832C35.549 76.7868 34.9904 77.2736 34.9469 77.9195C34.9017 78.5638 35.3883 79.1224 36.0328 79.1661C36.6686 79.2141 37.239 78.7252 37.281 78.0802C37.3262 77.4343 36.8394 76.8757 36.1951 76.832Z" fill="#FFB320"/>
<path d="M53.8253 73.565C53.2402 73.8396 52.9875 74.5354 53.2621 75.1205C53.7028 75.7519 54.2213 75.9398 54.8176 75.6837C56.1982 74.9796 55.2488 72.9557 53.8253 73.565Z" fill="#FFB320"/>
<path d="M59.0535 70.5538C58.5215 70.922 58.3904 71.6506 58.7602 72.1811C59.2626 72.7343 59.8056 72.8321 60.3889 72.4744C60.9194 72.1062 61.0504 71.3776 60.6822 70.8471C60.3125 70.3151 59.5839 70.184 59.0535 70.5538Z" fill="#FFB320"/>
<path d="M72.326 56.4309C71.7472 56.1454 71.0451 56.3841 70.7597 56.9645C70.4742 57.5433 70.7112 58.2454 71.2916 58.5309C71.8871 58.8001 72.4092 58.6227 72.858 57.9989C73.1437 57.4185 72.9066 56.718 72.326 56.4309Z" fill="#FFB320"/>
<path d="M75.4714 44.4111C74.8303 44.3346 74.2482 44.7933 74.1717 45.4346C74.097 46.0641 74.7011 46.7436 75.3356 46.7436C75.9207 46.7436 76.4247 46.3052 76.4964 45.7107C76.4964 45.7092 76.4964 45.7092 76.4964 45.7092C76.5715 45.0679 76.1128 44.486 75.4714 44.4111Z" fill="#FFB320"/>
<path d="M74.412 50.5535C73.7926 50.371 73.1406 50.7252 72.958 51.3446C72.7738 51.964 73.1281 52.6146 73.7475 52.7987C74.3181 52.9678 75.0325 52.5842 75.2016 52.0077C75.3857 51.3883 75.0315 50.7377 74.412 50.5535Z" fill="#FFB320"/>
<path d="M63.7029 66.7048C63.2411 67.1572 63.2333 67.8983 63.6858 68.3601C64.2356 68.8229 64.7874 68.8282 65.3411 68.3757C65.803 67.9233 65.8092 67.1822 65.3568 66.7219C64.9043 66.2601 64.1648 66.2523 63.7029 66.7048Z" fill="#FFB320"/>
<path d="M69.2775 61.8712C68.7533 61.4921 68.0214 61.6091 67.6424 62.1318C67.2633 62.656 67.3803 63.3877 67.9046 63.7669C68.4851 64.1327 69.0298 64.0454 69.5382 63.5048C69.9172 62.9821 69.8002 62.2504 69.2775 61.8712Z" fill="#FFB320"/>
<path d="M18.6411 11.3801C18.8595 11.3801 19.0811 11.3192 19.2776 11.1913C19.8192 10.8387 19.9735 10.1148 19.6225 9.57181C19.2714 9.03042 18.5461 8.87596 18.0045 9.22701C17.4617 9.57961 17.3071 10.3035 17.6597 10.8465C17.883 11.1913 18.259 11.3801 18.6411 11.3801Z" fill="#FFB320"/>
<path d="M24.1363 8.44381C24.8977 8.44381 25.5203 7.53297 25.2112 6.81028C24.9554 6.21741 24.2673 5.94281 23.6745 6.19869C23.6727 6.19869 23.6727 6.19869 23.6727 6.19869C23.0799 6.453 22.8053 7.14105 23.0611 7.73548C23.2516 8.17858 23.6823 8.44381 24.1363 8.44381Z" fill="#FFB320"/>
<path d="M36.2091 5.54342C36.2356 5.54342 36.2622 5.54186 36.2871 5.5403C36.933 5.49817 37.4214 4.93962 37.3775 4.29526C37.3354 3.6509 36.7769 3.16256 36.1327 3.20468C35.4867 3.24837 35 3.80536 35.0421 4.44972C35.0842 5.06912 35.5991 5.54342 36.2091 5.54342Z" fill="#FFB320"/>
<path d="M30.0494 6.47949C30.7314 6.47949 31.3492 5.70954 31.1868 5.03475C31.037 4.40755 30.4052 4.01906 29.7764 4.1704C29.1476 4.32174 28.7607 4.95362 28.912 5.58082C29.04 6.11753 29.5205 6.47949 30.0494 6.47949Z" fill="#FFB320"/>
<path d="M13.7173 15.1979C13.9997 15.1979 14.2836 15.0964 14.5083 14.8889C14.9842 14.4521 15.0154 13.711 14.5768 13.2351C14.1399 12.7608 13.4004 12.7296 12.9245 13.1665C12.4487 13.6049 12.4175 14.3444 12.8559 14.8203C13.087 15.0715 13.4006 15.1979 13.7173 15.1979Z" fill="#FFB320"/>
<path d="M2.21547 46.9105C1.58047 47.0291 1.1639 47.6423 1.28247 48.2757C1.39137 48.8542 2.0699 49.3217 2.64921 49.2103C3.28421 49.0901 3.70234 48.4785 3.58221 47.8435C3.46191 47.2085 2.85032 46.7904 2.21547 46.9105Z" fill="#FFB320"/>
<path d="M2.0345 36.7973C2.61552 36.8884 3.27829 36.3921 3.36519 35.8143C3.46193 35.1762 3.02211 34.5802 2.38227 34.4835C1.74415 34.3868 1.14815 34.8267 1.05158 35.4664C0.954843 36.1045 1.39466 36.7021 2.0345 36.7973Z" fill="#FFB320"/>
<path d="M1.79891 43.0288H1.82075C2.46667 43.0178 2.98138 42.4843 2.97062 41.8383H2.96906C2.95814 41.1924 2.42611 40.6775 1.77847 40.6885C1.13255 40.7009 0.619241 41.233 0.630318 41.8789C0.641084 42.5186 1.16235 43.0288 1.79891 43.0288Z" fill="#FFB320"/>
<path d="M3.2889 30.6907C3.85587 30.8771 4.5784 30.5219 4.76781 29.948C4.97063 29.3348 4.63831 28.6718 4.02515 28.4689C3.412 28.2661 2.74891 28.5984 2.54609 29.2116C2.34326 29.8263 2.67558 30.4878 3.2889 30.6907Z" fill="#FFB320"/>
<path d="M5.56195 24.8836C6.15639 25.1696 6.68436 25.0089 7.14556 24.4015C7.4498 23.8305 7.23449 23.1222 6.66345 22.8179C6.09398 22.5137 5.38409 22.729 5.07985 23.3C4.77733 23.8695 4.99264 24.5794 5.56195 24.8836Z" fill="#FFB320"/>
<path d="M8.78391 19.543C9.35994 19.9287 9.90694 19.859 10.4252 19.334C10.8215 18.8238 10.7279 18.0889 10.2162 17.6926C9.70599 17.2979 8.97129 17.3915 8.57484 17.9017C8.18011 18.4134 8.27201 19.1483 8.78391 19.543Z" fill="#FFB320"/>
<path d="M79.2919 19.5218L74.9466 17.6551C74.6347 16.6451 74.2426 15.6593 73.7763 14.7121L75.5172 10.3497C75.69 9.91647 75.5891 9.42173 75.2602 9.09097L70.9628 4.76937C70.6311 4.4358 70.1318 4.33345 69.6951 4.50929L65.6325 6.14875C64.5631 5.55977 63.4406 5.07486 62.2835 4.70228L60.5884 0.712543C60.4049 0.280524 59.9808 0 59.5115 0H53.4341C52.9646 0 52.5406 0.280524 52.3571 0.712543L50.6619 4.70244C49.5049 5.07502 48.3825 5.55977 47.313 6.1489L43.2504 4.50929C42.8137 4.33314 42.3144 4.43565 41.9827 4.76937L37.6853 9.09097C37.3564 9.42189 37.2553 9.91647 37.4283 10.3497L39.1692 14.7121C38.7907 15.4809 38.4602 16.2772 38.1831 17.0881C33.0621 17.0965 28.1521 18.6559 23.9814 21.5989C22.7453 22.4714 24.0947 24.3836 25.3307 23.5111C39.8802 13.049 60.768 23.8787 60.6141 41.8137C60.6143 48.0549 57.9771 54.0604 53.3789 58.2903C53.138 58.5118 53.0008 58.8242 53.0008 59.1515V63.5976L49.0087 61.9111C48.6973 61.7794 48.3439 61.789 48.0397 61.9376C42.4043 64.7325 35.4952 64.943 29.7025 62.5212L30.8836 61.3077C31.2089 60.9734 31.3045 60.4777 31.1271 60.0463L29.5897 56.3102C29.4111 55.8762 28.9903 55.5908 28.5208 55.5855L25.8103 55.5548C25.3583 55.0051 24.8626 54.4939 24.3295 54.0267L24.3008 51.3332C24.2958 50.8655 24.0126 50.4456 23.5809 50.2656L19.8662 48.7174C19.4316 48.5361 18.9312 48.6331 18.5956 48.963L17.4241 50.1145C14.3166 42.5274 15.8667 33.3124 21.3012 27.1571C22.2924 26.0141 20.524 24.4805 19.5331 25.6239C13.5691 32.3807 11.8357 42.4736 15.1883 50.8251C14.9814 50.8347 14.7745 50.8492 14.5681 50.8687L12.63 48.9614C12.2947 48.6314 11.7942 48.5344 11.3596 48.715L7.64411 50.2617C7.21224 50.4414 6.92891 50.8609 6.92361 51.3287L6.89037 54.2633C6.44712 54.663 6.02977 55.0925 5.64268 55.5473L2.70046 55.5793C2.23099 55.5844 1.81021 55.8693 1.63125 56.3034L0.0911805 60.0388C-0.0866823 60.4702 0.00880195 60.9659 0.333948 61.3005L2.39466 63.4202C2.34785 64.019 2.34036 64.6214 2.37235 65.221L0.331763 67.3178C0.00630563 67.6521 -0.0893346 68.1478 0.0880601 68.5792L1.62548 72.3152C1.80412 72.7494 2.22491 73.0347 2.69437 73.0401L5.40491 73.0708C5.8569 73.6203 6.35242 74.1318 6.88569 74.5989L6.9144 77.2924C6.91939 77.7602 7.20257 78.18 7.63428 78.3601L11.349 79.9083C11.7833 80.0894 12.2838 79.9925 12.6196 79.6627L14.5313 77.7834C15.2346 77.8321 15.9428 77.8232 16.6472 77.7568L18.5852 79.6638C18.9839 80.0038 19.4074 80.0858 19.8556 79.9101L23.5711 78.3637C24.003 78.1839 24.2863 77.7644 24.2914 77.2966L24.3248 74.3621C24.7679 73.9623 25.1853 73.533 25.5724 73.078L28.5149 73.0459C28.9842 73.0407 29.405 72.7558 29.5839 72.3218L31.1242 68.5864C31.302 68.155 31.2066 67.6593 30.8814 67.3246L28.8205 65.2049C28.8336 65.0372 28.8436 64.8693 28.8505 64.7013C35.0709 67.29 42.4735 67.1357 48.5814 64.271L53.7154 66.44C54.6429 66.6623 55.1848 66.303 55.341 65.3621V59.6575C60.0506 55.1379 62.7981 48.8946 62.9479 42.3755C63.8696 42.0404 64.7694 41.6319 65.6324 41.1567L69.695 42.7961C70.1437 42.967 70.5662 42.8804 70.9626 42.536L75.26 38.2144C75.5889 37.8835 75.69 37.3889 75.517 36.9557L73.7761 32.5933C74.2425 31.6461 74.6346 30.6599 74.9464 29.6503L79.2917 27.7836C79.7214 27.5988 79.9999 27.176 79.9999 26.7084V20.5968C80.0001 20.1294 79.7216 19.7066 79.2919 19.5218ZM27.7154 70.7142L24.9995 70.7438C24.6437 70.7477 24.3089 70.9132 24.09 71.1938C23.5948 71.8278 23.0306 72.4095 22.4133 72.9223C22.1493 73.1417 21.9947 73.4659 21.9908 73.8093L21.9603 76.4994L19.6734 77.4513L17.8893 75.6954C17.6303 75.4395 17.2629 75.3199 16.9058 75.3706C16.0169 75.4954 15.1167 75.5074 14.2302 75.4063C13.8785 75.3667 13.529 75.487 13.2774 75.7344L11.5327 77.4494L9.24674 76.4966L9.22053 74.036C9.21679 73.6852 9.05593 73.3548 8.78227 73.1356C8.08377 72.5756 7.45548 71.9263 6.91471 71.2052C6.6966 70.9142 6.35554 70.7413 5.99186 70.7371L3.49522 70.7087L2.54491 68.3993L4.41637 66.4763C4.6557 66.2305 4.77506 65.8921 4.74292 65.5505C4.66756 64.7481 4.67801 63.9351 4.77443 63.1343C4.81671 62.7834 4.69814 62.4322 4.45178 62.1786L2.54787 60.2203L3.50006 57.911L6.2159 57.8815C6.57178 57.8776 6.90676 57.7121 7.12565 57.4316C7.62039 56.7978 8.18456 56.216 8.80224 55.7029C9.06623 55.4835 9.22084 55.1593 9.22459 54.816L9.25517 52.1259L11.5421 51.1741L13.3264 52.9299C13.5858 53.1852 13.9476 53.3053 14.3099 53.2548C15.061 53.1493 15.8202 53.1243 16.5728 53.1802C17.0264 53.3704 17.5908 53.2324 17.9383 52.8909L19.6828 51.1761L21.9689 52.1289L21.9951 54.5895C21.9989 54.9402 22.1597 55.2707 22.4334 55.4899C23.1316 56.0495 23.7599 56.6991 24.301 57.4205C24.5191 57.7113 24.8603 57.8843 25.2238 57.8884L27.7204 57.9168L28.6708 60.226L27.0385 61.9033C26.6759 62.1401 26.4323 62.6434 26.4729 63.0748C26.5483 63.8766 26.5377 64.6898 26.4414 65.4914C26.3991 65.8423 26.5178 66.1933 26.764 66.4467L28.6679 68.4051L27.7154 70.7142ZM48.8477 19.4874C50.3566 16.6932 53.277 14.9236 56.4727 14.9236C65.4745 15.0341 68.4118 26.9356 60.6165 31.3226C58.1821 26.1491 54.0056 21.9504 48.8477 19.4874ZM77.6598 25.9377L73.517 27.7176C73.1912 27.8575 72.9466 28.1377 72.8516 28.4793C72.5138 29.6943 72.0448 30.8753 71.4577 31.9894C71.2979 32.2925 71.279 32.6504 71.406 32.9686L73.0586 37.1095L69.8507 40.3354L65.9826 38.7744C65.645 38.638 65.2627 38.6669 64.9491 38.8522C64.284 39.2456 63.5913 39.5929 62.8803 39.8901C62.7082 37.6648 62.2403 35.5211 61.5158 33.4983C65.178 31.6143 67.487 27.8644 67.487 23.6528C67.3564 12.0764 52.0646 8.36127 46.6819 18.5773C44.7636 17.8772 42.7352 17.4082 40.6303 17.204C40.8792 16.5582 41.1661 15.9262 41.4875 15.3162C41.6473 15.013 41.6663 14.6551 41.5391 14.3368L39.8866 10.1959L43.0945 6.96988L46.9625 8.53086C47.3002 8.66722 47.6824 8.63851 47.996 8.45285C49.2089 7.73562 50.5059 7.17458 51.8506 6.78562C52.1887 6.68779 52.4649 6.443 52.6025 6.1191L54.2081 2.3403H58.7372L60.3428 6.11941C60.4804 6.44331 60.7564 6.68811 61.0945 6.78593C62.4393 7.17489 63.7362 7.73594 64.9491 8.45316C65.2627 8.63867 65.645 8.66738 65.9826 8.53117L69.8507 6.97019L73.0586 10.1961L71.406 14.337C71.2792 14.6553 71.2979 15.013 71.4577 15.3162C72.0448 16.4301 72.5136 17.6111 72.8516 18.8263C72.9464 19.1678 73.1912 19.448 73.517 19.588L77.6598 21.3679V25.9377Z" fill="#FFB320"/>
<path d="M27.8639 49.2671H28.7119C30.0335 49.2671 31.1085 48.192 31.1085 46.8705V39.773C31.1085 38.4515 30.0334 37.3764 28.7119 37.3764C28.2087 37.3656 27.6708 37.3584 27.1731 37.4163C29.8823 25.5097 46.5372 25.4513 49.2766 37.4163C48.7789 37.3584 48.2411 37.3656 47.7381 37.3764C46.4164 37.3764 45.3414 38.4515 45.3414 39.773V46.8705C45.3414 48.192 46.4166 49.2671 47.7381 49.2671C48.2559 49.2615 49.1514 49.2593 49.5109 49.2615C49.5109 51.396 47.9488 53.1725 45.9079 53.5078C45.4138 52.2281 44.1707 51.3179 42.7187 51.3179H40.4719C35.9392 51.5054 35.9395 57.9648 40.4719 58.152H42.7187C44.2073 58.152 45.4765 57.1953 45.944 55.8644C49.2621 55.497 51.8514 52.676 51.8514 49.2615V48.2881C55.4378 45.9726 55.3957 40.5703 51.7796 38.3088C51.439 34.9933 49.8967 31.9283 47.4274 29.6662C39.2807 22.1087 25.7366 27.2966 24.6707 38.3088C19.7215 41.4917 21.9016 49.2138 27.8639 49.2671ZM42.7187 55.8117H40.4719C39.0465 55.761 39.0474 53.7084 40.4719 53.6582H42.7187C44.1441 53.7089 44.143 55.7616 42.7187 55.8117ZM48.5859 46.9268C48.5895 46.9264 47.6816 46.9805 47.6816 46.8705V39.773C47.6816 39.663 48.5895 39.717 48.5859 39.7167C53.3699 39.9153 53.3662 46.7301 48.5859 46.9268ZM27.8639 39.7167C27.8603 39.7172 28.7682 39.663 28.7682 39.773V46.8705C28.7682 46.9805 27.8603 46.9265 27.8639 46.9268C23.0799 46.7282 23.0836 39.9136 27.8639 39.7167Z" fill="#FFB320"/>
<path d="M18.5525 57.182C16.6603 56.3935 14.5757 56.391 12.6816 57.1749C10.7786 57.9625 9.29676 59.4484 8.50901 61.3588C6.03937 67.335 11.6511 73.5883 17.8365 71.7C18.4547 71.5114 18.8027 70.8573 18.614 70.2392C18.4253 69.621 17.771 69.2734 17.1533 69.4616C15.9764 69.8209 14.7013 69.7574 13.563 69.2829C10.8385 68.1474 9.54202 64.9929 10.6725 62.2508C11.2214 60.9198 12.2527 59.8851 13.5765 59.3371C17.7381 57.5844 22.0534 61.6476 20.7038 65.9237C20.5105 66.5403 20.8536 67.1969 21.4704 67.3903C22.0865 67.5837 22.7435 67.2405 22.9368 66.6237C23.5114 64.791 23.3844 62.8183 22.5792 61.069C21.7684 59.3069 20.3383 57.9264 18.5525 57.182Z" fill="#FFB320"/>
</svg>
