<svg width="78" height="63" viewBox="0 0 78 63" fill="none" xmlns="http://www.w3.org/2000/svg">
<path fill-rule="evenodd" clip-rule="evenodd" d="M73.9397 45.7387L13.4858 62.3759C11.2653 62.9882 8.96038 61.6781 8.34803 59.4561L0.57982 31.2279C-0.0325334 29.0059 1.27762 26.701 3.49959 26.0901L63.9535 9.45149C66.1755 8.84059 68.4804 10.1507 69.0913 12.3727L76.861 40.6009C77.4719 42.8214 76.1617 45.1263 73.9397 45.7387ZM66.4055 13.1106C66.2023 12.3704 65.4345 11.9342 64.6929 12.1373L4.23892 28.776C3.49874 28.9791 3.06252 29.7484 3.26566 30.4885L11.0339 58.7168C11.2385 59.4569 12.0063 59.8932 12.7464 59.69L73.2019 43.0528C73.942 42.8482 74.3783 42.0804 74.1751 41.3403L66.4055 13.1106ZM55.7646 38.7463L57.8432 25.1396L50.411 27.1858L49.8016 24.9726L60.1349 22.1288L60.6143 23.8694L58.5362 37.9831L55.7646 38.7463ZM44.5808 42.2864L45.4913 25.6967L47.1679 25.2352L46.256 41.8249L44.5808 42.2864ZM39.7484 43.1539L37.2342 43.8469L36.341 40.6027L29.5093 42.4831L28.9537 40.4633L32.3458 29.7775L35.8038 28.8246L38.2459 37.6979L40.1581 37.1722L40.7675 39.3839L38.8552 39.9111L39.7484 43.1539ZM33.9109 31.773L31.372 39.5903L35.7331 38.3894L33.9109 31.773ZM17.8124 47.0422C22.2184 41.2999 23.9006 38.8498 23.327 36.7659C22.9133 35.2609 21.4194 34.9563 20.1092 35.3163C18.434 35.7778 17.3497 36.7933 16.71 38.0782L14.799 36.847C15.6414 34.9517 17.4536 33.6443 19.4735 33.0886C22.2451 32.3254 25.076 33.211 25.8631 36.067C26.5964 38.731 24.8192 41.7631 21.7923 45.7157L28.131 43.9712L28.7389 46.1844L18.3635 49.0402L17.8124 47.0422ZM53.4416 11.0815L33.6894 5.93251C33.2111 6.71663 32.4518 7.33366 31.4935 7.59801C30.5992 7.84299 29.6981 7.72816 28.9191 7.36339L14.7448 21.7308L9.37314 23.2095L27.0201 5.32205C26.9771 5.20725 26.921 5.09982 26.8881 4.97912C26.34 2.98546 27.5119 0.92334 29.5056 0.37372C31.5007 -0.174452 33.5628 0.997487 34.1124 2.99114C34.1288 3.05076 34.1293 3.11049 34.1428 3.17013L58.8147 9.60281L53.4416 11.0815Z" fill="#FFB320"/>
</svg>
