<svg width="69" height="69" viewBox="0 0 69 69" fill="none" xmlns="http://www.w3.org/2000/svg">
<g clip-path="url(#clip0)">
<path d="M67.85 21.8438H66.5849C66.2014 19.7409 64.7622 17.9845 62.7761 17.1944L51.9331 12.8578C47.3858 11.0474 42.3187 11.0474 37.772 12.8578L26.9295 17.1944C24.9412 17.9828 23.4998 19.7398 23.1151 21.8438H20.7C20.0649 21.8438 19.55 22.3587 19.55 22.9938V25.2938C19.55 25.5987 19.6713 25.8913 19.8869 26.1069L20.2238 26.4438H7.17122C5.86343 26.4388 4.66682 27.1783 4.08621 28.3502L0.607007 35.308C0.598022 35.3266 0.544116 35.4495 0.535693 35.4692C0.513794 35.5186 0.499194 35.5596 0.478418 35.6079C0.350391 35.9021 0.246509 36.2065 0.169019 36.5175V36.5889C0.0623291 37.0094 0.00561523 37.4413 0 37.8748V50.5938C0 51.2289 0.514917 51.7438 1.15 51.7438H3.79478C4.82236 55.1393 7.95229 57.4624 11.5 57.4624C15.0477 57.4624 18.1776 55.1393 19.2052 51.7438H31.3948C32.305 54.8007 34.9369 57.03 38.1016 57.4253C41.2664 57.8206 44.3654 56.3079 46 53.5688C47.6329 56.3112 50.7348 57.8274 53.9018 57.432C57.0693 57.0362 59.7023 54.8036 60.6108 51.7438H64.4C64.9273 51.7438 65.3872 51.385 65.5157 50.8729L66.4479 47.1438H67.85C68.4851 47.1438 69 46.6289 69 45.9938V22.9938C69 22.3587 68.4851 21.8438 67.85 21.8438ZM27.7808 19.3299L38.6238 14.9921C42.6219 13.4002 47.0781 13.4002 51.0762 14.9921L61.9192 19.3288C63.0332 19.7701 63.8845 20.6966 64.231 21.8438H25.469C25.8155 20.6972 26.6667 19.7712 27.7808 19.3299ZM18.0962 44.8438C16.5953 42.6825 14.1313 41.3938 11.5 41.3938C8.8687 41.3938 6.40474 42.6825 4.90378 44.8438H2.3V37.9438H18.4C19.0351 37.9438 19.55 37.4289 19.55 36.7938V28.7438H21.85V44.8438H18.0962ZM17.25 35.6438H12.65V28.7438H17.25V35.6438ZM10.35 28.7438V35.6438H3.01089L6.147 29.3845C6.34016 28.9926 6.73884 28.7444 7.17627 28.7438H10.35ZM2.3 49.4438V47.1438H3.79478C3.56848 47.8895 3.45225 48.6644 3.45 49.4438H2.3ZM11.5 55.1938C8.32458 55.1938 5.75 52.6192 5.75 49.4438C5.75 46.2678 8.32458 43.6938 11.5 43.6938C14.6754 43.6938 17.25 46.2678 17.25 49.4438C17.2461 52.6175 14.6743 55.1899 11.5 55.1938ZM19.55 49.4438C19.5478 48.6644 19.4315 47.8895 19.2052 47.1438H31.3948C31.1685 47.8895 31.0522 48.6644 31.05 49.4438H19.55ZM39.1 55.1938C35.9246 55.1938 33.35 52.6192 33.35 49.4438C33.35 46.2678 35.9246 43.6938 39.1 43.6938C42.2754 43.6938 44.85 46.2678 44.85 49.4438C44.8461 52.6175 42.2743 55.1899 39.1 55.1938ZM52.9 55.1938C49.7246 55.1938 47.15 52.6192 47.15 49.4438C47.15 46.2678 49.7246 43.6938 52.9 43.6938C56.0754 43.6938 58.65 46.2678 58.65 49.4438C58.6461 52.6175 56.0743 55.1899 52.9 55.1938ZM63.5021 49.4438H60.95C60.9478 48.6644 60.8315 47.8895 60.6052 47.1438H64.0709L63.5021 49.4438ZM66.7 44.8438H59.4962C57.9953 42.6825 55.5313 41.3938 52.9 41.3938C50.2687 41.3938 47.8047 42.6825 46.3038 44.8438H45.6962C44.1953 42.6825 41.7313 41.3938 39.1 41.3938C36.4687 41.3938 34.0047 42.6825 32.5038 44.8438H24.15V27.5938C24.1489 27.2889 24.0276 26.9969 23.8131 26.7807L21.85 24.8176V24.1438H66.7V44.8438Z" fill="#FFB320"/>
<path d="M11.5 45.9938C9.59474 45.9938 8.04999 47.5386 8.04999 49.4438C8.04999 51.3491 9.59474 52.8938 11.5 52.8938C13.4052 52.8938 14.95 51.3491 14.95 49.4438C14.95 47.5386 13.4052 45.9938 11.5 45.9938ZM11.5 50.5938C10.8649 50.5938 10.35 50.0789 10.35 49.4438C10.35 48.8087 10.8649 48.2938 11.5 48.2938C12.1351 48.2938 12.65 48.8087 12.65 49.4438C12.65 50.0789 12.1351 50.5938 11.5 50.5938Z" fill="#FFB320"/>
<path d="M39.1 45.9938C37.1947 45.9938 35.65 47.5386 35.65 49.4438C35.65 51.3491 37.1947 52.8938 39.1 52.8938C41.0052 52.8938 42.55 51.3491 42.55 49.4438C42.55 47.5386 41.0052 45.9938 39.1 45.9938ZM39.1 50.5938C38.4649 50.5938 37.95 50.0789 37.95 49.4438C37.95 48.8087 38.4649 48.2938 39.1 48.2938C39.7351 48.2938 40.25 48.8087 40.25 49.4438C40.25 50.0789 39.7351 50.5938 39.1 50.5938Z" fill="#FFB320"/>
<path d="M52.9 45.9938C50.9948 45.9938 49.45 47.5386 49.45 49.4438C49.45 51.3491 50.9948 52.8938 52.9 52.8938C54.8053 52.8938 56.35 51.3491 56.35 49.4438C56.35 47.5386 54.8053 45.9938 52.9 45.9938ZM52.9 50.5938C52.2649 50.5938 51.75 50.0789 51.75 49.4438C51.75 48.8087 52.2649 48.2938 52.9 48.2938C53.5351 48.2938 54.05 48.8087 54.05 49.4438C54.05 50.0789 53.5351 50.5938 52.9 50.5938Z" fill="#FFB320"/>
<path d="M41.4 14.9438H43.7V17.2438H41.4V14.9438Z" fill="#FFB320"/>
<path d="M46 17.2438H48.3V19.5438H46V17.2438Z" fill="#FFB320"/>
<path d="M34.5 17.2438H36.8V19.5438H34.5V17.2438Z" fill="#FFB320"/>
<path d="M52.9 17.2438H55.2V19.5438H52.9V17.2438Z" fill="#FFB320"/>
<path d="M29.9 27.5938H32.2V39.0938H29.9V27.5938Z" fill="#FFB320"/>
<path d="M36.8 27.5938H39.1V39.0938H36.8V27.5938Z" fill="#FFB320"/>
<path d="M43.7 27.5938H46V39.0938H43.7V27.5938Z" fill="#FFB320"/>
<path d="M50.6 27.5938H52.9V39.0938H50.6V27.5938Z" fill="#FFB320"/>
<path d="M57.5 27.5938H59.8V39.0938H57.5V27.5938Z" fill="#FFB320"/>
</g>
<defs>
<clipPath id="clip0">
<rect width="69" height="69" fill="white"/>
</clipPath>
</defs>
</svg>
